<svg width="1200" height="1200" viewBox="0 0 1200 1200" fill="none" xmlns="http://www.w3.org/2000/svg">
<rect x="60" y="60" width="1080" height="1080" rx="100" fill="white"/>
<path d="M669.967 606.232L668.939 601.186L665.816 589.172L665.054 587.17L662.964 578.17L661.798 573.988L656.96 555.012L652.253 537.572L640.061 493.991L636.624 482.213C636.202 480.766 637.292 480.091 638.505 480.033L656.927 475.267L664.003 473.648L687.674 469.255C691.041 468.63 694.23 467.988 697.29 468.328L713.646 492.261L718.838 500.103L723.53 507.287L732.915 522.032L735.693 526.267L753.07 554.906L767.661 579.243L773.532 589.542C774.35 590.58 774.3 592.098 772.928 592.621L755.676 594.565L747.838 595.617L729.989 598.665C712.236 601.696 695.127 605.854 677.725 611.279C675.818 611.874 673.648 612.721 671.871 612.061L669.967 606.232Z" fill="#2C8733"/>
<path d="M793.414 591C791.156 591.093 788.326 591.801 786.032 591.008L782.616 585.259L766.577 558.288L749.856 531.077L735.536 508.322L723.541 490.305L708.983 469.005C707.851 468.099 708.025 466.31 709.501 465.935L724.994 464.672L736.806 463.703L751.354 462.887L770.699 461.941L795.288 461.406C796.946 461.37 800.245 465.349 801.112 468.943C802.332 473.999 801.823 478.994 800.835 484.269L799.708 490.28C797.857 500.161 797.907 509.134 803.878 517.011C807.251 521.46 812.743 523.303 817.746 520.299C824.866 516.024 828.096 502.357 841.699 505.302C852.96 507.739 866.91 515.88 865.474 525.635C864.24 534.022 855.338 533.831 854.072 542.608C852.769 551.639 864.124 553.338 861.504 560.393C861.039 561.643 859.718 563.162 858.885 564.424L852.121 574.668L848.679 580.236L845.028 586.699C844.443 587.735 844.068 590.543 842.415 590.822L804.702 590.532L793.414 591Z" fill="#2C8733"/>
<path d="M861.456 855.336L866.89 869.052L870.934 880.017L877.939 899.044L888.555 929.254L896.438 952.33C897.574 955.657 898.918 958.577 899.055 962.901L841.73 962.913C839.158 962.913 838.18 959.469 838.583 957.325C839.305 953.485 841.36 951.065 843.643 948.251L848.174 942.667C853.284 936.369 858.229 930.673 857.32 922.586C856.497 915.268 851.124 910.187 843.669 910.157L826.672 910.089C825.146 910.083 823.803 909.935 822.296 909.587L817.624 893.22L802.795 845.315L798.816 833.955L793.891 819.035L785.224 793.602L772.477 758.359L768.852 748.157C768.284 746.561 771.273 746.159 772.253 745.889L792.641 740.263L810.51 736.735L812.583 741.332L820.52 758.334L824.608 767.305L832.01 783.993L846.634 818.259L848.065 821.896L855.901 841.009L859.625 850.376" fill="#2C8733"/>
<path d="M864.403 734.444C864.46 734.631 864.615 734.851 864.421 735.451L883.815 769.074L888.851 778.087L893.429 786.533L908.468 814.466L918.425 833.515L931.661 859.289L950.605 897.278C951.722 899.517 951.019 902.448 949.208 903.789C947.474 905.072 944.91 905.142 942.707 904.058C938.888 902.178 933.479 902.954 931.869 907.305C930.85 910.058 931.697 913.441 931.419 916.189C930.486 925.436 940.61 922.605 941.464 927.332C941.899 929.743 941.741 932.273 940.947 934.471C938.756 940.542 929.725 935.618 926.52 943.152C925.616 945.278 925.249 947.221 926.429 949.474C928.79 953.984 927.965 960.936 922.575 962.871C919.845 963.85 915.7 963.207 912.922 962.798C910.7 960.93 910.377 957.278 909.43 954.53L901.427 931.312L889.32 898.57L881.4 877.518L879.144 872.025L871.006 851.973L866.453 840.348L861.773 829.211L858.795 822.196L854.787 813.208L849.468 800.326L836.79 772.203L830.492 758.35L824.782 746.211L820.519 737.206C820.173 736.474 819.868 734.633 820.825 734.464C834.464 732.047 847.721 730.628 861.458 730.218C862.163 732.26 863.078 733.732 864.403 734.444Z" fill="#1B7F35"/>
<path d="M787.578 834.175L798.997 871.983L808.803 907.22C809.002 907.937 808.942 909.289 808.651 909.631C808.386 909.941 807.618 909.948 806.621 909.95L737.727 910.057C735.648 910.061 734.184 909.276 733.839 907.213L731.502 893.254L725.505 860.257L718.516 824.268L713.008 796.983L709.091 777.949L708.277 773.544L711.604 771.203L718.922 767.49L735.761 759.417L756.682 751.154C757.773 750.723 758.251 750.613 759.119 751.147C759.711 751.512 759.662 752.3 759.94 753.078L765.458 768.475L769.992 781.02L784.205 823.573L787.578 834.175Z" fill="#1B7F35"/>
<path d="M875.738 730.083L894.991 730.81L909.738 732.466C925.605 734.247 950.31 741.285 965.441 747.56C965.285 753.553 959.127 757.752 957.899 763.629C956.439 770.615 965.625 776.688 968.963 789.038C969.85 792.322 971.449 795.584 974.687 797.208C981.281 800.514 984.996 793.432 990.041 794.454C994.415 795.34 996.637 801.641 1002.53 806.481C1005.03 808.539 1007.83 810.835 1008.45 814.336C1009.89 822.416 1009.2 828.449 1002.65 830.122C998.036 831.299 995.784 835.745 997.716 840.359L1002.25 845.661C1003.5 847.118 1002.97 850.07 1002.22 851.905C1001.07 854.743 996.016 852.815 994.088 856.15C991.905 859.929 998.489 863.951 994.187 869.044C992.124 871.485 987.437 872.204 984.589 870.446C981.751 868.694 980.889 861.583 976.383 859.622C973.883 858.533 971.241 859.824 969.556 861.612C965.323 866.102 971.311 872.331 969.368 876.98C967.833 880.652 963.233 882.495 959.998 879.878C956.697 877.208 957.85 870.735 954.742 870.132C952.529 869.702 950.79 870.061 948.443 870.573L939.208 852.66L925.877 827.076L920.89 818.046L912.876 803.062L905.864 790.071L896.907 774.041L891.471 764.463L887.868 758.036L873.878 734.066L872.665 732.353C872.543 731.898 872.299 731.108 872.557 730.212L875.738 730.083Z" fill="#1B7F35"/>
<path d="M872.312 718.586L865.696 718.495C864.468 718.478 864.118 716.991 863.678 716.257L850.531 694.296L828.482 658.501L816.478 639.464L813.743 635.228L797.824 610.115C796.68 608.311 795.027 606.714 795.623 604.34L798.824 603.72C799.378 604.232 800.292 604.335 800.538 603.48L839.015 603.819C842.721 603.852 839.681 610.602 847.235 618.688C849.421 621.028 852.057 623.424 855.069 624.714C863.248 628.219 861.046 635.704 866.028 638.818C874.006 643.803 884.486 637.082 888.808 648.239L891.037 653.99C891.982 656.429 892.527 659.481 894.523 661.407C898.889 665.619 905.606 662.775 909.634 664.441C918.223 667.994 913.45 679.561 920.585 684.379C930.07 690.784 938.062 683.055 942.961 694.912C944.892 699.587 948.127 703 951.119 706.618C956.433 713.046 947.053 719.883 950.808 726.203L953.782 731.208C937.722 728.007 920.598 721.968 904.406 720.637L882.027 718.797L872.312 718.586Z" fill="#084E2D"/>
<path d="M742.574 451.159L732.575 451.946L721.588 452.82L710.691 454.015L703.744 454.576C698.545 454.996 699.857 455.394 696.128 450.87L693.849 448.105L691.666 444.296L682.524 432.234C682.603 431.344 681.924 431.162 681.504 431.49C680.534 428.808 679.023 426.219 677.431 426.274C677.63 424.79 676.43 423.9 675.472 422.443L673.16 418.929C672.629 418.122 671.945 418.492 671.542 418.484C671.853 416.824 670.615 415.861 669.539 414.43L665.654 409.264C664.917 408.284 664.4 407.392 663.548 407.387C663.363 405.568 661.812 404.107 660.517 402.451L656.542 397.369L653.152 392.861L637.486 373.111C637.04 372.549 638.821 371.44 639.705 371.409L658.344 370.761L710.557 370.091L711.238 376.707C711.679 380.988 713.85 386.398 718.721 386.792C723.284 387.162 726.541 389.32 726.971 394.249C727.487 400.162 732.15 404.854 737.955 405.824C745.39 407.066 752.103 412.961 752.467 421.26C752.731 427.267 756.94 431.252 762.322 432.683C769.686 434.64 765.51 442.993 770.284 447.616C770.81 448.125 770.666 449.193 770.322 449.482C770.012 449.742 769.367 449.803 768.575 449.852L748.672 451.061L742.574 451.159Z" fill="#2C8733"/>
<path d="M704.681 759.229C704.909 757.862 704.589 756.472 704.242 754.842L698.585 728.308L689.996 688.94L676.499 631.365C676.006 629.262 675.185 627.543 675.863 625.394C677.2 625.511 678.474 624.753 679.697 624.413L705.69 617.19C707.136 616.789 707.716 617.886 708.084 618.848L717.764 643.235L720.048 648.914L729.317 672.551L732.945 682.023L744.92 713.01L750.048 726.954L753.863 737.297C754.307 738.222 754.58 739.381 753.557 740.077C737.989 745.552 723.739 752.7 709.087 759.709L705.813 761.275C705.851 760.044 705.468 759.445 704.681 759.229Z" fill="#084E2D"/>
<path d="M700.473 357.304L664.025 357.735L623.592 359.932L610.671 361.144L601.678 362.355C599.658 362.627 598.351 362.158 597.712 360.248L593.444 347.484L588.487 333.477L583.414 319.793L593.691 319.212L622.709 318.431L679.445 318.43C680.592 318.774 680.747 321.141 681.009 322C682.668 327.442 684.829 333.163 687.761 338.094L692.643 346.302L695.482 350.417C697.052 352.693 699.296 353.882 700.473 357.304Z" fill="#084E2D"/>
<path d="M648.895 305.872L588.016 306.633L580.633 306.978C578.413 307.082 577.939 304.311 577.265 302.673L574.636 296.284L566.685 276.295L562.561 266.313L558.567 257.314L554.858 249.176L549.465 237.22L581.677 237.07C584.414 237.058 586.363 237.878 588.378 239.622L595.309 245.619L601.821 251.139L623.609 273.241L628.826 279.117L633.797 285.144L639.169 291.669L642.824 296.178L645.903 300.021L648.895 305.872Z" fill="#2C8733"/>
<path d="M686.807 453.234L688.341 456.664L674.669 459.056L653.786 463.26L633.615 468.208C632.278 468.536 631.644 466.262 631.446 465.508L630.172 460.639L626.632 449.237L618.992 425.168L614.563 411.239L603.552 377.182C603.094 375.766 604.196 374.92 605.494 374.876L625.803 372.707L630.21 377.65L634.686 383.247L638.674 388.255L651.643 405.276L655.167 409.688L670.908 431.019L678.394 441.532L684.967 450.978L686.807 453.234Z" fill="#2C8733"/>
<path d="M685.617 273.22C691.506 279.889 678.974 293.86 679.192 305.76L662.395 305.747C661.318 305.746 660.692 304.162 660.255 303.583L654.692 296.208L638.835 277.124L625.32 262.605L607.818 246.121L600.26 239.576C599.746 239.131 597.992 238.801 598.509 237.162L654.291 237.32C658.276 239.852 663.127 246.338 663.172 246.693L663.855 252.011C664.235 254.97 666.204 256.785 669.037 257.966L674.739 260.343C676.594 261.116 677.224 263.716 678.641 265.321L685.617 273.22Z" fill="#2C8733"/>
<path d="M804.912 725.189L792.838 728.395L780.029 731.691L764.215 736.041L735.968 664.098L729.936 648.996L718.918 621.054C718.142 619.087 717.202 617.569 716.899 614.781L737.764 610.498L743.829 609.7L756.892 632.051L766.887 650.033L772.871 661.069L783.548 681.387L786.541 687.396L788.014 689.928L795.526 705.327L798.495 711.436L801.485 717.3L804.912 725.189Z" fill="#2C8733"/>
<path d="M853.717 719.105L816.685 723.516C815.449 723.663 813.96 723.806 813.345 722.529L803.941 703.022L795.499 686.462L787.602 671.278L778.462 654.475L771.824 642.106L762.479 625.468L753.514 609.197C753.118 608.478 754.955 607.994 755.539 607.917L767.693 606.315L781.802 604.939C783.811 604.743 784.6 606.897 785.553 608.391L807.769 643.2L819.784 662.251L840.709 696.213L849.664 711.252L853.717 719.105Z" fill="#2C8733"/>
<path d="M645.531 593.302L647.453 600.309L648.24 604.346L652.531 621.362L652.991 623.977L655.044 631.966L659.048 648.934L663.043 665.948L666.17 679.626L667.417 684.234L670.269 697.58L673.763 714.255L675.569 722.262L677.748 732.262L679.102 738.941L686.816 777.23L689.033 787.96L689.974 794.469L681.585 794.779L578.73 794.703L514.704 794.765C512.821 794.767 511.175 794.729 509.959 794.057L511.247 780.934L512.059 771.544L513.051 757.569L514.141 737.532C515.842 706.249 515.745 675.284 514.143 643.988L513.115 623.904L512.085 608.968L511.203 597.619L509.109 573.934L508.14 563.924L506.791 551.258L505.097 534.943L501.098 503.953L497.06 474.979L494.43 457.257L490.564 433.269L488.292 420.328C487.879 417.975 486.881 415.822 487.638 413.103L594.451 413.134L598.463 426.532L611.967 471.132L615.647 483.263L620.736 501.251L623.715 511.296L635.675 555.228L639.063 567.952L641.088 575.942L645.531 593.302ZM605.11 709.285L613.354 725.248C604.44 735.539 603.487 749.922 610.941 760.996C618.72 772.555 634.02 775.284 645.265 767.736C657.673 759.407 661.038 741.582 652.156 728.666C645.626 719.17 635.217 715.59 623.92 718.506L619.528 710.43L610.529 693.44L601.898 677.078L598.549 670.388C615.158 661.974 618.974 640.085 607.938 626.105C598.915 614.673 583.439 613.085 572.023 621.778C567.59 625.37 564.298 630.451 562.738 636.243C558.906 650.479 565.322 664.165 578.278 670.818L556.52 718.111C547.485 716.267 539.104 718.846 532.809 725.497C521.672 738.014 523.266 757.859 537.134 767.715C547.802 775.297 562.762 772.633 570.651 762.374C578.07 752.727 578.558 740.596 572.723 730.219L567.723 723.443L572.511 713.158L580.817 695.342L583.419 689.838L594.927 689.815L605.11 709.285Z" fill="#F4AD04"/>
<path d="M485.801 558.307C485.666 558.754 486.868 559.431 486.931 559.998L487.935 569.151L489.122 582.928L490.106 595.92L491.098 608.925L492.071 624.925L493.138 646.966C494.563 676.386 495.1 705.467 493.2 734.843L492.116 751.61L491.352 763.28L490.567 773.166L490.041 774.574L485.499 804.356L483.243 813.958C480.457 825.815 477.006 837.174 471.479 848.165L463.116 864.796L454.379 877.97L451.803 881.334L448.211 885.875L431.706 902.205L423.735 908.319C421.892 909.733 420.005 910.05 417.569 910.048L312.496 909.986L312.424 875.918C328.878 872.951 350.248 868.351 363.877 859.512L379.679 849.262L384.735 845.282L402.676 827.321L406.233 822.887L408.838 819.447L416.867 807.438L420.886 800.435C429.117 786.093 434.499 770.928 439.261 754.93C445.287 734.687 449.031 714.396 451.883 693.332L452.972 685.288L453.926 677.261L456.621 645.237L457.975 588.296L457.623 559.131L479.05 558.765L485.801 558.307Z" fill="#084E2D"/>
<path d="M441.337 679.134L436.507 709.25L433.08 726.579L429.657 740.26L426.636 750.252L421.969 764.497L419.355 770.977L409.745 791.333C395.538 817.181 375.118 837.749 348.383 849.97C339.892 853.852 331.131 857.269 321.778 858.516L312.398 859.767L312.297 798.387L314.761 797.343C327.911 793.316 340.355 787.243 349.959 777.608L363.493 764.031C389.654 732.324 399.174 697.039 406.89 657.425L408.052 651.457C412.448 623.301 414.265 595.197 413.986 566.669L414.378 562.077C414.434 561.426 413.932 560.479 414.489 559.776C414.964 559.177 415.519 559.047 416.629 559.027L428.651 558.808L444.594 558.567C445.527 558.553 446.003 558.848 446.245 559.168C446.681 559.745 446.682 560.297 446.673 561.297L446.174 618.87L444.999 641.258L443.714 656.256L441.507 676.264L441.337 679.134Z" fill="#2C8733"/>
<path d="M477.533 479.284C475.222 479.974 472.574 479.562 469.69 479.6L453.531 479.81L391.656 479.69L313.724 479.695L311.746 479.416L311.522 469.283C311.445 465.808 307.893 464.1 304.992 462.936C296.84 459.665 300.234 453.4 296.464 448.429C295.552 447.227 294.793 445.852 294.381 444.442L301.724 440.286C311.584 434.705 319.465 427.016 326.88 418.43C328.311 416.772 329.467 414.079 331.551 413.204L353.794 413.232L465.589 413.135C467.335 413.133 467.535 415.139 467.711 416.185L471.043 435.969L474.305 457.529L477.533 479.284Z" fill="#2C8733"/>
<path d="M274.194 385.746C275.866 383.805 280.021 382.786 284.037 378.576C288.532 373.864 290.936 367.321 289.082 361.003C287.451 355.444 284.632 350.386 279.763 347.175C274.451 343.673 268.588 344.655 263.635 348.05C258.555 351.532 251.841 350.529 248.475 345.392C246.529 342.423 245.349 338.621 241.591 337.304L238.718 336.296C225.329 331.603 235.705 317.488 229.903 308.126C225.107 300.387 215.113 304.139 212.823 299.142C211.268 295.747 211.717 291.913 213.074 288.404L334.653 288.276C338.005 307.757 340.008 327.986 338.055 347.545C336.229 367.829 329.248 386.537 317.194 402.81L312.606 408.301C305.339 416.999 296.249 423.704 286.308 428.826C284.578 429.717 283.19 427.696 282.308 426.734L276.036 419.895L268.214 410.892C263.497 405.461 263.979 397.61 268.614 392.227L274.194 385.746Z" fill="#084E2D"/>
<path d="M312.417 782.079L312.169 726.658L312.413 710.313C315.726 708.225 319.568 706.765 322.218 703.82L324.788 702.303C343.275 686.175 352.407 668.714 359.011 645.518C364.698 625.539 367.627 605.416 368.185 584.636L368.786 562.215C368.81 561.323 368.48 559.947 369.367 558.602L403.252 558.643L402.664 589.255L402.027 600.359C399.425 645.639 389.978 696.443 367.468 735.017L359.838 746.446L357.316 749.86L351.189 756.845L343.685 764.342C336.771 771.249 315.911 783.256 312.417 782.079Z" fill="#2C8733"/>
<path d="M479.579 492.298L480.191 498.344L482.835 521.256L484.033 531.118L484.852 543.219L313.831 543.262C312.655 543.15 312.177 542.572 311.776 542.373L311.772 491.125C312.595 490.653 313.255 490.479 314.651 490.475L355.664 490.367L390.684 490.382L431.685 490.364L478.412 490.324C479.167 490.772 479.534 491.848 479.579 492.298Z" fill="#1B7F35"/>
<path d="M693.502 809.265C693.04 809.944 693.393 811.114 693.613 812.317L704.75 873.185L706 880.988L709.97 905.232C710.199 906.631 710.961 908.334 710.003 909.915L645.006 910.008C644.642 910.008 644.037 909.398 643.735 909.012L640.105 877.92L637.086 851.901L632.644 813.438C632.469 811.92 632.257 810.239 632.671 808.346L692.393 808.305C692.783 809.032 693.219 809.211 693.502 809.265Z" fill="#1B7F35"/>
<path d="M452.693 345.568C453.325 346.636 454.06 347.418 454.296 348.559L463.051 390.927L464.555 399.366C464.677 400.054 464.629 402.087 463.455 402.09L431.599 402.175L338.844 401.999C342.609 394.384 345.803 388.548 347.962 381.519L350.504 373.247C353.21 364.67 354.568 356.272 354.69 347.277C354.7 346.543 355.335 346.254 355.856 346.225L358.793 346.063L431.281 345.784L452.693 345.568Z" fill="#2C8733"/>
<path d="M490.57 345.692C513.861 346.37 548.576 345.568 571.893 345.7C573.969 347.457 574.627 351.937 575.665 354.278C579.128 364.956 587.42 390.625 590.652 401.065C588.073 404.691 487.913 400.894 484.814 402.217C482.565 388.816 478.724 370.439 475.473 357.265C475.501 354.965 470.927 345.036 475.656 346.186C476.462 346.502 476.995 345.955 477.139 345.627" fill="#F4AD04"/>
<path d="M620.748 813.144L622.089 825.988L624.698 849.266L628.065 880.94L631.049 909.908L573.001 909.99C572.45 909.991 571.601 908.844 571.586 908.333L571.289 898.574L570.486 875.26L569.832 861.26L569.077 845.252L567.792 813.941C567.722 812.221 567.629 810.644 568.195 808.404L619.549 808.358C621.071 809.495 620.624 811.95 620.748 813.144Z" fill="#1B7F35"/>
<path d="M556.332 816.483L557.108 839.945L558.067 866.941L558.97 897.255L559.157 909.891L504.695 910.005C500.143 910.015 501.732 906.593 502.255 898.918L505.134 856.67L505.484 850.941L508.418 808.282L555.603 808.314L556.332 816.483Z" fill="#1B7F35"/>
<path d="M325.979 275.412L233.766 275.477L210.681 275.733C208.496 275.758 207.586 274.858 206.922 273.064C204.656 266.949 201.228 261.866 196.452 257.472L191.666 251.304C189.295 248.248 189.722 244.03 191.284 241.417C193.384 237.904 196.567 237.228 200.795 237.229L324.394 237.273L328.315 253.368L332.776 275.08C330.585 275.969 328.789 275.41 325.979 275.412Z" fill="#084E2D"/>
<path d="M357.916 562.214L357.161 587.651C356.643 605.12 354.607 622.286 349.219 638.878L346.065 648.592C343.464 656.603 340.095 663.928 335.63 671.251L333.374 674.951L329.591 680.3L315.834 694.257L313.589 695.484C312.995 695.447 312.633 694.722 312.597 694.362C312.357 694.106 312.159 693.725 312.159 693.159L312.152 674.153L312.165 645.843L312.11 561.326L311.85 559.335L313.867 558.704L328.683 558.963L348.72 558.878C351.866 558.865 354.834 558.238 357.709 558.922L357.916 562.214Z" fill="#084E2D"/>
<path d="M471.795 335.095L469.216 334.013C469.444 332.947 469.124 331.713 468.711 330.262L463.365 311.493L460.751 302.253L456.482 288.132L551.713 288.183C553.36 288.603 553.645 291.769 554.109 292.948L558.039 302.939L565.785 325.235C566.8 328.159 568.593 330.967 568.392 334.036C568.332 334.95 566.455 335.002 565.748 334.995L546.624 334.821L483.73 334.827L471.795 335.095Z" fill="#F4AD04"/>
<path d="M449.922 334.906L358.746 334.917C358.043 334.917 355.846 335.356 355.754 333.956L354.853 320.256L353.139 301.912L351.069 288.263L436.632 288.156C438.142 288.154 438.669 290.101 438.915 290.987L445.655 315.26L448.95 327.981C449.41 329.758 450.01 330.955 449.922 334.906Z" fill="#2C8733"/>
<path d="M547.139 275.968L452.914 275.861C451.11 274.627 450.95 271.557 450.23 269.676L444.42 254.476L438.689 240.229C438.395 239.498 438.075 237.827 438.712 237.168L527.599 237.116C529.612 237.115 531.02 236.684 532.253 238.115C533.027 239.014 533.354 240.482 533.99 241.944L538.843 253.088L545.756 270.25C546.52 272.148 547.661 273.806 547.139 275.968Z" fill="#F4AD04"/>
<path d="M432.679 270.666C433.314 272.489 434.066 274.631 433.034 275.847L351.756 275.847C350.518 275.847 349.569 275.752 349.095 275.407C348.184 274.742 347.975 273.649 347.675 272.278L344.438 257.481C343.091 251.325 341.885 245.403 339.581 239.26C339.197 238.238 339.642 237.172 340.544 237L355.73 237.249L417.63 237.108C420.156 237.102 421.168 237.723 421.976 240.029L426.36 252.537L432.679 270.666Z" fill="#2C8733"/>
<path d="M488.685 851.234L487.085 872.561L485.873 891.263L484.752 907.323C484.658 908.669 484.349 910.066 482.599 910.045L446.944 909.605C459.016 897.298 468.205 884.819 475.912 870.524L485.426 849.044L487.037 845.596C487.515 844.572 487.533 843.918 487.368 843.094C488.649 842.974 489.244 843.833 488.938 845.178L488.685 851.234Z" fill="#2C8733"/>
<path d="M358.793 346.063L355.856 346.225C355.382 345.587 355.547 344.551 356.194 344.291C356.91 344.004 358.157 344.112 358.643 344.715C358.87 344.997 358.8 345.649 358.793 346.063Z" fill="#F4F8F4"/>
<path d="M604.524 709.054L594.341 689.583L582.832 689.606L580.23 695.11L571.924 712.927L567.136 723.211L572.136 729.987C577.971 740.364 577.483 752.495 570.064 762.142C562.176 772.401 547.216 775.066 536.547 767.483C522.68 757.627 521.085 737.783 532.222 725.266C538.517 718.614 546.898 716.035 555.933 717.88L577.692 670.586C564.735 663.934 558.319 650.247 562.152 636.012C563.711 630.219 567.003 625.138 571.436 621.546C582.853 612.853 598.328 614.442 607.352 625.873C618.387 639.853 614.571 661.743 597.962 670.157L601.311 676.846L609.942 693.209L618.942 710.198L623.333 718.275C634.63 715.358 645.04 718.938 651.57 728.434C660.451 741.35 657.086 759.175 644.678 767.504C633.434 775.052 618.133 772.324 610.354 760.765C602.901 749.69 603.854 735.307 612.767 725.016L604.524 709.054Z" fill="#FEFEFE"/>
</svg>
