<svg width="1200" height="1200" viewBox="0 0 1200 1200" fill="none" xmlns="http://www.w3.org/2000/svg">
<rect x="60" y="75" width="1080" height="1080" rx="100" fill="white"/>
<g clip-path="url(#clip0_1_63)">
<path d="M358.554 1014.42L351.946 1015.38C346.922 1016.11 342.014 1015.74 337.176 1015.25C316.566 1013.14 299.3 999.634 292.649 979.532C289.516 970.064 289.364 960.271 291.03 950.234L294.568 939.263L298.417 931.963C306.609 919.453 319.611 911.414 334.148 908.781L345.634 907.911L356.212 908.778L360.095 909.502C371.267 911.584 381.357 917.542 388.312 926.549L392.714 932.249C398.591 939.86 400.656 949.465 400.971 959.365C401.456 974.635 396.512 989.428 385.626 1000.19C378.039 1007.69 369.096 1012.88 358.554 1014.42ZM373.351 962.153C373.351 946.738 360.864 934.242 345.46 934.242C330.057 934.242 317.57 946.738 317.57 962.153C317.57 977.568 330.057 990.064 345.46 990.064C360.864 990.064 373.351 977.568 373.351 962.153Z" fill="#084E2D"/>
<path d="M431.505 894.536C441.234 894.536 449.121 886.643 449.121 876.907C449.121 867.171 441.234 859.279 431.505 859.279C421.777 859.279 413.89 867.171 413.89 876.907C413.89 886.643 421.777 894.536 431.505 894.536Z" fill="#084E2D"/>
<path d="M630.193 881.951C642.696 897.134 642.926 922.651 633.129 938.604C624.395 952.825 612.199 959.49 595.916 961.432C593.802 962.142 591.57 962.021 589.262 962.025L558.145 962.088L557.994 1013.02L527.491 1012.95L527.489 863.746L588.298 863.864C590.696 863.868 592.861 863.731 594.989 864.414L602.049 865.558C613.114 867.35 623.049 873.275 630.193 881.951ZM603.678 897.194L600.316 894.595L594.64 892.104L589.282 891.197L558.141 891.089L558.18 935.743L588.353 935.752C589.785 935.752 591.147 935.711 592.333 935.119C596.196 934.49 599.83 932.943 602.915 930.2C612.699 921.501 610.748 902.659 603.678 897.194Z" fill="#2C8733"/>
<path d="M231.926 1015.42L210.182 1015.45L202.958 1014.52L199.279 1013.72L194.455 1012.42C186.235 1010.19 178.62 1006.75 171.987 1001.24L164 994.61L170.169 986.642L177.459 977.536L180.313 973.85C180.53 973.086 182.037 972.99 182.21 973.789C189.621 980.958 198.235 986.874 208.326 989.376L211.06 990.054L215.973 990.793C219.628 991.343 223.567 991.599 227.413 990.943L232.006 990.16C239.373 988.903 246.494 983.977 248.382 976.67C251.693 963.857 239.746 957.4 227.259 954.12L203.491 947.877L200.168 946.705C186.923 942.034 173.627 933.164 170.904 919.347L170.005 914.789C167.023 899.661 173.282 883.282 185.455 873.628C193.303 867.404 202.377 863.274 212.266 862.382L222.91 861.423L235.572 862.295L240.149 863.131L244.595 864.117L254.038 867.193C261.753 869.706 268.703 874.377 274.711 880.271C276.002 881.537 273.807 883.3 273.177 884.077L263.826 895.595L259.661 900.605C257.478 903.232 254.051 897.32 246.509 893.931C241.038 891.472 235.83 889.462 229.935 888.672C219.079 887.219 206.694 888.636 201.164 897.447C197.066 903.977 199.015 911.906 204.895 916.411C209.112 919.643 213.875 921.219 218.915 922.465L234.112 926.222L238.381 927.416L242.61 928.702L245.401 929.62C256.884 933.398 267.322 938.71 273.667 949.552C281.164 962.362 280.15 982.712 271.426 995.178C265.332 1003.89 256.417 1009.96 246.19 1012.6L241.971 1013.69L238.297 1014.5L231.926 1015.42Z" fill="#084E2D"/>
<path d="M787.473 1013.84L779.571 1015.23C773.998 1016.22 768.178 1016.3 762.623 1015.22L757.387 1014.19L750.21 1012.03C737.64 1008.24 725.356 995.74 720.348 982.753C714.921 968.681 714.872 953.332 720.93 939.236C726.24 926.882 736.055 917.934 748.015 912.53C753.892 909.875 759.841 907.805 766.232 907.942L779.314 908.223C804.011 911.012 823.751 928.961 826.913 953.596C828.633 966.992 825.678 983.733 817.447 993.91L813.751 998.48C807.155 1006.63 797.603 1011.22 787.473 1013.84ZM799.789 962.139C799.789 946.768 787.338 934.308 771.978 934.308C756.619 934.308 744.168 946.768 744.168 962.139C744.168 977.509 756.619 989.969 771.978 989.969C787.338 989.969 799.789 977.509 799.789 962.139Z" fill="#2C8733"/>
<path d="M1030.4 998.999C1028.89 1001.75 1027.12 1002.99 1025.07 1004.34L1019.09 1008.29C1015.28 1010.81 1011.18 1012.49 1006.75 1013.31L996.765 1015.16C991.224 1016.18 985.446 1016.22 979.908 1015.19L969.933 1013.33C960.945 1011.65 953.53 1006.3 947.123 999.659C941.071 993.385 937.298 985.698 935.061 977.23L934.093 973.565L933.302 967.21C932.785 963.054 932.896 959.016 933.546 954.79L934.669 947.5L936.302 941.847C939.177 931.899 945.56 923.769 954.052 917.739C962.794 911.531 972.834 908.559 983.507 908.039L996.789 908.94C1005.86 909.556 1019.11 917.821 1025.59 926.575C1029.7 932.132 1032.63 937.898 1034.06 944.572L1035.15 949.667C1036.57 956.259 1035.93 962.906 1035.24 970.065L961.122 970.249C963.372 982.528 970.762 989.945 982.606 992.499C993.638 994.879 1005.36 991.654 1013.74 983.826C1014.54 983.082 1016.07 982.816 1016.77 983.616L1023.96 991.92L1030.4 998.999ZM1008.35 951.349C1007.73 938.266 998.741 931.133 985.624 930.988C973.497 930.855 963.14 939.271 961.602 951.122L965.338 951.558L993.787 951.754L1008.35 951.349Z" fill="#2C8733"/>
<path d="M934.982 910.527L930.316 922.11L925.857 933.225L903.161 989.535L893.948 1012.75L866.672 1012.95C864.713 1010.14 863.782 1007.22 862.644 1004.13L860.461 998.203L852.349 978.123L851.109 974.812L848.043 966.848L836.452 937.554L825.658 910.587L853.591 910.422C854.94 911.092 855.7 913.091 855.93 914.478L869.46 951.86L879.48 979.162C879.721 979.821 880.038 980.274 880.062 980.766C880.087 981.28 881.396 981.469 881.609 980.926L883.675 975.67L890.372 957.549L907.114 912.71C907.518 911.63 907.968 910.481 909.32 910.484L934.982 910.527Z" fill="#2C8733"/>
<path d="M500.01 863.74H470.405V1013.01H500.01V863.74Z" fill="#084E2D"/>
<path d="M678.876 1010.26C678.873 1010.84 678.939 1012.88 678.209 1012.88L651.267 1013.02L651.257 910.476L678.234 910.363L678.922 915.671C679.365 919.093 678.25 922.235 679.466 926.047C685.983 914.083 698.758 907.642 712.445 909.771L712.515 936.528L697.689 936.89C689.166 937.099 679.178 947.036 679.137 955.701L678.876 1010.26Z" fill="#2C8733"/>
<path d="M416.632 909.921L416.611 1013.01L446.282 1013.01L446.302 909.927L416.632 909.921Z" fill="#084E2D"/>
<path d="M698.615 519.904L697.681 515.314L694.842 504.385L694.149 502.563L692.249 494.375L691.189 490.571L686.791 473.308L682.512 457.441L671.429 417.795L668.305 407.08C667.921 405.763 668.912 405.149 670.015 405.096L686.762 400.761L693.194 399.287L714.712 395.291C717.773 394.723 720.672 394.139 723.454 394.448L738.323 416.221L743.043 423.355L747.308 429.891L755.84 443.304L758.365 447.158L774.162 473.211L787.426 495.351L792.763 504.721C793.507 505.665 793.462 507.047 792.214 507.522L776.531 509.291L769.406 510.248L753.18 513.02C737.041 515.778 721.488 519.56 705.668 524.496C703.934 525.037 701.962 525.808 700.346 525.207L698.615 519.904Z" fill="#2C8733"/>
<path d="M810.838 506.047C808.784 506.132 806.212 506.776 804.127 506.054L801.021 500.824L786.441 476.288L771.24 451.533L758.222 430.832L747.318 414.441L734.084 395.064C733.054 394.24 733.213 392.612 734.554 392.271L748.638 391.122L759.377 390.24L772.602 389.498L790.188 388.637L812.541 388.151C814.048 388.118 817.047 391.738 817.836 395.008C818.945 399.607 818.482 404.151 817.583 408.95L816.56 414.418C814.876 423.408 814.922 431.571 820.35 438.736C823.416 442.784 828.409 444.461 832.957 441.728C839.43 437.839 842.366 425.406 854.732 428.084C864.969 430.302 877.651 437.707 876.345 446.582C875.223 454.212 867.131 454.039 865.98 462.024C864.795 470.239 875.118 471.785 872.736 478.203C872.314 479.34 871.112 480.722 870.355 481.87L864.206 491.19L861.077 496.255L857.758 502.135C857.227 503.077 856.886 505.631 855.383 505.886L821.099 505.622L810.838 506.047Z" fill="#2C8733"/>
<path d="M872.692 746.524L877.633 759.002L881.309 768.977L887.677 786.287L897.327 813.77L904.493 834.764C905.526 837.79 906.748 840.447 906.873 844.38L854.761 844.391C852.422 844.391 851.533 841.258 851.9 839.307C852.556 835.814 854.424 833.612 856.5 831.052L860.618 825.973C865.264 820.243 869.759 815.061 868.933 807.704C868.185 801.046 863.3 796.424 856.523 796.397L841.072 796.335C839.684 796.33 838.463 796.195 837.094 795.878L832.846 780.988L819.366 737.407L815.749 727.073L811.271 713.5L803.393 690.362L791.805 658.3L788.509 649.02C787.993 647.568 790.71 647.202 791.601 646.956L810.135 641.837L826.379 638.628L828.264 642.81L835.479 658.277L839.195 666.439L845.924 681.621L859.219 712.794L860.519 716.103L867.643 733.491L871.028 742.012" fill="#2C8733"/>
<path d="M875.372 636.544C875.423 636.714 875.565 636.914 875.387 637.46L893.019 668.048L897.597 676.248L901.758 683.931L915.43 709.343L924.481 726.672L936.514 750.12L953.735 784.68C954.75 786.717 954.111 789.383 952.465 790.603C950.889 791.771 948.558 791.835 946.555 790.848C943.084 789.138 938.166 789.844 936.703 793.802C935.777 796.307 936.546 799.384 936.294 801.885C935.446 810.297 944.649 807.721 945.425 812.022C945.821 814.215 945.677 816.516 944.956 818.516C942.963 824.039 934.753 819.56 931.84 826.414C931.018 828.347 930.685 830.115 931.757 832.165C933.903 836.268 933.153 842.593 928.253 844.352C925.772 845.244 922.004 844.658 919.479 844.286C917.459 842.587 917.165 839.264 916.304 836.765L909.029 815.643L898.023 785.856L890.823 766.704L888.772 761.707L881.374 743.465L877.235 732.888L872.981 722.757L870.273 716.376L866.63 708.198L861.794 696.479L850.269 670.895L844.544 658.292L839.353 647.249L835.478 639.056C835.163 638.39 834.886 636.716 835.756 636.562C848.154 634.363 860.206 633.072 872.694 632.7C873.335 634.557 874.167 635.896 875.372 636.544Z" fill="#1B7F35"/>
<path d="M805.532 727.273L815.913 761.669L824.827 793.724C825.008 794.377 824.954 795.608 824.689 795.919C824.448 796.201 823.75 796.207 822.844 796.208L760.214 796.306C758.324 796.309 756.993 795.595 756.679 793.718L754.555 781.019L749.104 751.001L742.75 718.26L737.742 693.438L734.182 676.122L733.442 672.114L736.467 669.985L743.119 666.607L758.427 659.263L777.445 651.746C778.438 651.354 778.872 651.253 779.661 651.74C780.199 652.072 780.154 652.788 780.408 653.496L785.424 667.504L789.545 678.916L802.466 717.628L805.532 727.273Z" fill="#1B7F35"/>
<path d="M885.675 632.577L903.178 633.238L916.584 634.744C931.009 636.365 953.467 642.768 967.222 648.476C967.081 653.928 961.483 657.748 960.366 663.095C959.039 669.45 967.389 674.975 970.424 686.21C971.231 689.198 972.684 692.166 975.628 693.642C981.622 696.65 984.999 690.207 989.585 691.137C993.562 691.944 995.582 697.675 1000.93 702.079C1003.21 703.951 1005.76 706.04 1006.32 709.225C1007.63 716.576 1007 722.064 1001.04 723.586C996.853 724.657 994.806 728.702 996.563 732.899L1000.69 737.723C1001.82 739.048 1001.34 741.734 1000.66 743.403C999.608 745.984 995.017 744.23 993.265 747.265C991.28 750.703 997.265 754.362 993.354 758.995C991.479 761.216 987.218 761.869 984.629 760.27C982.049 758.676 981.265 752.208 977.17 750.423C974.896 749.432 972.495 750.607 970.963 752.233C967.115 756.319 972.558 761.985 970.792 766.215C969.397 769.555 965.215 771.232 962.274 768.851C959.273 766.422 960.322 760.533 957.496 759.984C955.484 759.593 953.903 759.92 951.77 760.386L943.375 744.09L931.256 720.815L926.722 712.6L919.436 698.968L913.062 687.15L904.92 672.567L899.978 663.853L896.703 658.006L883.985 636.2L882.882 634.642C882.772 634.228 882.549 633.509 882.784 632.693L885.675 632.577Z" fill="#1B7F35"/>
<path d="M882.562 622.117L876.547 622.035C875.431 622.019 875.112 620.666 874.712 619.998L862.761 600.02L842.717 567.456L831.804 550.137L829.318 546.283L814.847 523.437C813.807 521.796 812.304 520.343 812.846 518.183L815.756 517.619C816.259 518.085 817.09 518.179 817.313 517.401L852.292 517.71C855.661 517.739 852.898 523.88 859.765 531.236C861.752 533.365 864.149 535.545 866.886 536.718C874.321 539.907 872.32 546.716 876.849 549.549C884.102 554.085 893.629 547.97 897.558 558.12L899.583 563.352C900.442 565.571 900.939 568.347 902.753 570.099C906.722 573.931 912.828 571.343 916.49 572.859C924.298 576.091 919.959 586.615 926.445 590.998C935.067 596.825 942.333 589.793 946.786 600.58C948.542 604.833 951.483 607.938 954.203 611.23C959.033 617.077 950.507 623.297 953.92 629.046L956.623 633.6C942.024 630.688 926.457 625.194 911.737 623.983L891.393 622.31L882.562 622.117Z" fill="#084E2D"/>
<path d="M764.62 378.828L755.53 379.545L745.542 380.34L735.637 381.427L729.322 381.937C724.595 382.319 725.787 382.681 722.398 378.565L720.326 376.05L718.341 372.585L710.031 361.612C710.102 360.802 709.485 360.637 709.103 360.935C708.221 358.495 706.848 356.139 705.401 356.19C705.582 354.84 704.491 354.03 703.619 352.704L701.518 349.508C701.036 348.774 700.413 349.11 700.047 349.103C700.33 347.592 699.205 346.717 698.226 345.415L694.695 340.715C694.025 339.823 693.555 339.012 692.78 339.008C692.612 337.353 691.202 336.024 690.025 334.517L686.411 329.894L683.329 325.793L669.088 307.825C668.683 307.314 670.301 306.305 671.105 306.277L688.049 305.688L735.514 305.078L736.133 311.097C736.534 314.992 738.509 319.913 742.936 320.272C747.085 320.608 750.046 322.571 750.436 327.055C750.905 332.435 755.144 336.703 760.421 337.585C767.18 338.715 773.282 344.079 773.614 351.628C773.854 357.093 777.68 360.719 782.573 362.02C789.267 363.801 785.47 371.399 789.811 375.605C790.289 376.068 790.158 377.04 789.845 377.303C789.563 377.54 788.977 377.595 788.257 377.639L770.164 378.74L764.62 378.828Z" fill="#2C8733"/>
<path d="M730.173 659.091C730.38 657.848 730.089 656.584 729.773 655.101L724.632 630.962L716.823 595.147L704.553 542.769C704.105 540.856 703.359 539.292 703.976 537.337C705.19 537.443 706.349 536.754 707.461 536.445L731.09 529.874C732.404 529.508 732.932 530.507 733.266 531.382L742.066 553.567L744.142 558.734L752.569 580.238L755.867 588.855L766.753 617.045L771.415 629.73L774.883 639.14C775.287 639.981 775.535 641.035 774.605 641.669C760.453 646.65 747.498 653.152 734.178 659.528L731.202 660.953C731.237 659.833 730.889 659.289 730.173 659.091Z" fill="#084E2D"/>
<path d="M726.348 293.445L693.214 293.837L656.457 295.836L644.712 296.938L636.536 298.041C634.7 298.288 633.512 297.861 632.931 296.123L629.051 284.512L624.544 271.769L619.933 259.32L629.275 258.791L655.654 258.081L707.232 258.08C708.274 258.393 708.416 260.547 708.654 261.328C710.162 266.278 712.126 271.483 714.792 275.969L719.229 283.436L721.811 287.18C723.238 289.251 725.278 290.332 726.348 293.445Z" fill="#084E2D"/>
<path d="M679.46 246.655L624.116 247.348L617.405 247.662C615.386 247.756 614.956 245.235 614.343 243.745L611.953 237.933L604.724 219.748L600.976 210.667L597.345 202.48L593.974 195.077L589.071 184.2L618.354 184.064C620.842 184.052 622.613 184.799 624.445 186.385L630.746 191.841L636.666 196.863L656.473 216.97L661.216 222.315L665.734 227.798L670.618 233.734L673.941 237.837L676.74 241.332L679.46 246.655Z" fill="#2C8733"/>
<path d="M713.924 380.716L715.319 383.837L702.89 386.013L683.906 389.838L665.569 394.339C664.354 394.637 663.777 392.569 663.598 391.882L662.44 387.453L659.221 377.08L652.276 355.184L648.249 342.512L638.239 311.529C637.823 310.241 638.825 309.471 640.005 309.431L658.467 307.458L662.473 311.955L666.543 317.047L670.168 321.602L681.958 337.087L685.161 341.101L699.471 360.507L706.276 370.071L712.252 378.664L713.924 380.716Z" fill="#2C8733"/>
<path d="M712.842 216.951C718.196 223.018 706.803 235.727 707.002 246.554L691.732 246.542C690.753 246.541 690.184 245.1 689.787 244.573L684.73 237.864L670.314 220.502L658.029 207.294L642.118 192.298L635.247 186.344C634.779 185.939 633.185 185.638 633.655 184.148L684.365 184.291C687.988 186.594 692.397 192.495 692.439 192.818L693.06 197.656C693.405 200.348 695.195 201.999 697.77 203.074L702.954 205.236C704.64 205.939 705.213 208.305 706.501 209.765L712.842 216.951Z" fill="#2C8733"/>
<path d="M821.29 628.124L810.314 631.041L798.67 634.04L784.293 637.997L758.615 572.548L753.131 558.809L743.115 533.389C742.41 531.599 741.555 530.218 741.28 527.682L760.247 523.786L765.761 523.06L777.636 543.393L786.722 559.752L792.163 569.792L801.868 588.276L804.589 593.742L805.928 596.046L812.758 610.055L815.456 615.613L818.175 620.948L821.29 628.124Z" fill="#2C8733"/>
<path d="M865.657 622.589L831.993 626.602C830.869 626.736 829.516 626.866 828.956 625.705L820.408 607.958L812.733 592.893L805.555 579.08L797.245 563.793L791.211 552.541L782.716 537.404L774.566 522.602C774.206 521.948 775.876 521.508 776.407 521.438L787.455 519.98L800.282 518.728C802.108 518.55 802.825 520.51 803.692 521.869L823.887 553.536L834.81 570.867L853.832 601.764L861.973 615.445L865.657 622.589Z" fill="#2C8733"/>
<path d="M676.402 508.141L678.148 514.516L678.864 518.189L682.765 533.668L683.183 536.047L685.05 543.316L688.689 558.752L692.321 574.23L695.164 586.674L696.298 590.866L698.89 603.008L702.066 618.177L703.708 625.461L705.689 634.558L706.92 640.635L713.933 675.468L715.948 685.229L716.803 691.151L709.177 691.433L615.675 691.363L557.471 691.42C555.759 691.422 554.262 691.388 553.157 690.776L554.328 678.837L555.066 670.295L555.967 657.582L556.958 639.353C558.505 610.894 558.417 582.724 556.961 554.253L556.026 535.981L555.09 522.393L554.287 512.069L552.385 490.522L551.504 481.415L550.277 469.893L548.737 455.05L545.102 426.857L541.431 400.499L539.04 384.376L535.525 362.553L533.46 350.781C533.084 348.64 532.177 346.682 532.865 344.207L629.966 344.236L633.613 356.424L645.889 396.999L649.235 408.035L653.861 424.4L656.569 433.538L667.441 473.504L670.522 485.079L672.363 492.349L676.402 508.141ZM639.656 613.656L647.15 628.178C639.047 637.54 638.181 650.625 644.956 660.7C652.028 671.215 665.938 673.697 676.16 666.831C687.439 659.253 690.498 643.038 682.424 631.287C676.488 622.648 667.025 619.391 656.755 622.045L652.763 614.697L644.582 599.241L636.736 584.356L633.692 578.27C648.79 570.616 652.259 550.702 642.227 537.983C634.024 527.584 619.956 526.139 609.577 534.047C605.547 537.315 602.555 541.937 601.137 547.207C597.653 560.158 603.486 572.609 615.264 578.661L595.484 621.685C587.271 620.007 579.651 622.354 573.929 628.405C563.805 639.792 565.254 657.845 577.861 666.812C587.559 673.71 601.159 671.286 608.33 661.953C615.074 653.176 615.518 642.14 610.214 632.7L605.669 626.535L610.021 617.179L617.572 600.971L619.937 595.964L630.399 595.943L639.656 613.656Z" fill="#F4AD04"/>
<path d="M531.196 476.305C531.073 476.712 532.166 477.327 532.223 477.843L533.136 486.17L534.215 498.704L535.11 510.523L536.011 522.354L536.896 536.91L537.866 556.962C539.161 583.726 539.649 610.183 537.922 636.907L536.937 652.161L536.242 662.777L535.529 671.77L535.05 673.052L530.921 700.146L528.87 708.881C526.338 719.668 523.201 730.002 518.176 740L510.573 755.13L502.631 767.115L500.289 770.175L497.024 774.307L482.019 789.163L474.773 794.725C473.098 796.011 471.382 796.299 469.168 796.298L373.649 796.241L373.584 765.249C388.542 762.549 407.968 758.365 420.358 750.323L434.723 740.999L439.32 737.377L455.629 721.037L458.863 717.003L461.231 713.874L468.53 702.949L472.183 696.579C479.666 683.531 484.559 669.735 488.888 655.18C494.366 636.765 497.77 618.306 500.362 599.143L501.352 591.825L502.219 584.523L504.669 555.389L505.9 503.587L505.58 477.055L525.059 476.722L531.196 476.305Z" fill="#084E2D"/>
<path d="M490.775 586.226L486.384 613.624L483.268 629.389L480.156 641.835L477.411 650.925L473.168 663.885L470.792 669.78L462.055 688.298C449.14 711.813 430.577 730.524 406.273 741.642C398.554 745.174 390.589 748.282 382.087 749.417L373.56 750.555L373.468 694.715L375.708 693.765C387.663 690.102 398.975 684.578 407.706 675.812L420.009 663.46C443.791 634.616 452.446 602.516 459.46 566.477L460.516 561.048C464.513 535.433 466.165 509.866 465.911 483.913L466.267 479.735C466.318 479.143 465.862 478.282 466.368 477.642C466.8 477.096 467.304 476.979 468.313 476.96L479.242 476.761L493.736 476.542C494.583 476.529 495.016 476.797 495.236 477.088C495.633 477.613 495.633 478.115 495.625 479.026L495.172 531.402L494.104 551.769L492.935 565.414L490.929 583.615L490.775 586.226Z" fill="#2C8733"/>
<path d="M523.68 404.415C521.579 405.043 519.171 404.668 516.55 404.702L501.86 404.894L445.611 404.785L374.766 404.789L372.968 404.535L372.764 395.317C372.694 392.155 369.465 390.602 366.828 389.543C359.417 386.567 362.502 380.867 359.075 376.345C358.246 375.251 357.556 374 357.182 372.718L363.857 368.937C372.82 363.86 379.984 356.865 386.725 349.054C388.027 347.545 389.077 345.096 390.971 344.3L411.192 344.325L512.822 344.237C514.409 344.235 514.59 346.06 514.751 347.011L517.78 365.01L520.745 384.624L523.68 404.415Z" fill="#2C8733"/>
<path d="M338.83 319.32C340.35 317.554 344.128 316.627 347.778 312.797C351.865 308.51 354.05 302.558 352.364 296.81C350.882 291.753 348.319 287.151 343.893 284.231C339.064 281.044 333.734 281.938 329.232 285.027C324.613 288.194 318.509 287.281 315.449 282.608C313.681 279.908 312.608 276.448 309.192 275.25L306.58 274.334C294.408 270.064 303.841 257.223 298.567 248.706C294.207 241.665 285.121 245.079 283.04 240.533C281.626 237.444 282.034 233.957 283.268 230.764L393.791 230.648C396.839 248.371 398.659 266.773 396.885 284.567C395.225 303.02 388.878 320.039 377.92 334.844L373.75 339.839C367.143 347.752 358.88 353.852 349.843 358.511C348.27 359.322 347.008 357.483 346.207 356.609L340.504 350.387L333.394 342.196C329.106 337.256 329.544 330.113 333.757 325.216L338.83 319.32Z" fill="#084E2D"/>
<path d="M373.577 679.88L373.352 629.46L373.574 614.591C376.585 612.692 380.078 611.363 382.488 608.684L384.823 607.304C401.63 592.632 409.931 576.747 415.934 555.645C421.104 537.469 423.767 519.162 424.274 500.258L424.821 479.86C424.843 479.049 424.543 477.797 425.349 476.573L456.153 476.611L455.619 504.46L455.039 514.561C452.674 555.755 444.086 601.973 423.623 637.065L416.686 647.462L414.394 650.568L408.824 656.923L402.002 663.743C395.717 670.027 376.753 680.95 373.577 679.88Z" fill="#2C8733"/>
<path d="M525.54 416.254L526.096 421.755L528.499 442.598L529.588 451.571L530.333 462.579L374.863 462.618C373.794 462.516 373.359 461.99 372.995 461.81L372.991 415.187C373.739 414.758 374.339 414.599 375.609 414.596L412.892 414.497L444.728 414.511L482 414.495L524.478 414.459C525.165 414.866 525.498 415.845 525.54 416.254Z" fill="#1B7F35"/>
<path d="M720.011 704.611C719.591 705.229 719.912 706.294 720.112 707.388L730.235 762.762L731.372 769.86L734.981 791.917C735.19 793.189 735.882 794.738 735.011 796.177L675.924 796.261C675.594 796.262 675.043 795.707 674.769 795.355L671.469 767.07L668.724 743.399L664.687 708.408C664.527 707.027 664.334 705.497 664.711 703.775L719.002 703.738C719.357 704.399 719.753 704.562 720.011 704.611Z" fill="#1B7F35"/>
<path d="M501.098 282.768C501.673 283.74 502.341 284.452 502.555 285.49L510.514 324.033L511.881 331.711C511.992 332.336 511.949 334.186 510.881 334.189L481.923 334.266L397.602 334.106C401.024 327.179 403.927 321.869 405.89 315.475L408.201 307.949C410.661 300.146 411.895 292.506 412.007 284.323C412.016 283.656 412.593 283.392 413.066 283.366L415.737 283.219L481.633 282.965L501.098 282.768Z" fill="#2C8733"/>
<path d="M535.531 282.881C556.704 283.498 588.263 282.768 609.459 282.889C611.346 284.487 611.945 288.563 612.888 290.692C616.036 300.407 623.574 323.759 626.512 333.256C624.168 336.555 533.115 333.101 530.299 334.305C528.254 322.113 524.762 305.395 521.807 293.41C521.832 291.317 517.674 282.285 521.973 283.331C522.706 283.618 523.19 283.121 523.321 282.823" fill="#F4AD04"/>
<path d="M653.872 708.14L655.091 719.825L657.462 741.002L660.523 769.817L663.236 796.171L610.466 796.245C609.966 796.246 609.194 795.202 609.18 794.737L608.91 785.859L608.18 764.65L607.586 751.914L606.9 737.35L605.732 708.865C605.667 707.3 605.583 705.866 606.097 703.828L652.782 703.786C654.165 704.821 653.759 707.054 653.872 708.14Z" fill="#1B7F35"/>
<path d="M595.314 711.178L596.019 732.522L596.89 757.082L597.712 784.66L597.881 796.155L548.371 796.259C544.234 796.267 545.678 793.154 546.153 786.172L548.771 747.738L549.088 742.526L551.756 703.717L594.65 703.747L595.314 711.178Z" fill="#1B7F35"/>
<path d="M385.907 218.945L302.078 219.004L281.092 219.237C279.106 219.259 278.279 218.44 277.675 216.809C275.615 211.245 272.499 206.621 268.158 202.624L263.807 197.013C261.651 194.232 262.039 190.395 263.459 188.018C265.368 184.822 268.262 184.207 272.106 184.209L384.466 184.248L388.03 198.891L392.085 218.643C390.094 219.452 388.461 218.943 385.907 218.945Z" fill="#084E2D"/>
<path d="M414.939 479.86L414.253 503.001C413.782 518.893 411.931 534.51 407.033 549.604L404.166 558.441C401.801 565.729 398.738 572.393 394.679 579.055L392.628 582.42L389.189 587.287L376.683 599.984L374.642 601.101C374.103 601.067 373.774 600.407 373.741 600.08C373.523 599.847 373.343 599.501 373.342 598.985L373.337 581.695L373.348 555.941L373.298 479.052L373.062 477.241L374.895 476.667L388.364 476.902L406.579 476.825C409.439 476.813 412.137 476.243 414.751 476.865L414.939 479.86Z" fill="#084E2D"/>
<path d="M518.464 273.241L516.118 272.257C516.326 271.286 516.035 270.164 515.659 268.844L510.8 251.769L508.423 243.363L504.543 230.517L591.115 230.563C592.612 230.946 592.871 233.825 593.292 234.898L596.865 243.987L603.906 264.271C604.83 266.931 606.46 269.485 606.276 272.277C606.222 273.109 604.516 273.156 603.873 273.15L586.488 272.991L529.313 272.997L518.464 273.241Z" fill="#F4AD04"/>
<path d="M498.579 273.069L415.693 273.079C415.055 273.079 413.057 273.478 412.974 272.204L412.155 259.741L410.596 243.053L408.715 230.636L486.497 230.538C487.87 230.536 488.349 232.308 488.573 233.114L494.7 255.196L497.695 266.769C498.114 268.386 498.659 269.475 498.579 273.069Z" fill="#2C8733"/>
<path d="M586.956 219.451L501.299 219.353C499.659 218.231 499.513 215.438 498.86 213.727L493.577 199.898L488.368 186.938C488.101 186.273 487.809 184.752 488.389 184.153L569.193 184.106C571.023 184.105 572.303 183.713 573.424 185.015C574.127 185.832 574.424 187.168 575.003 188.498L579.415 198.636L585.699 214.249C586.394 215.975 587.431 217.484 586.956 219.451Z" fill="#F4AD04"/>
<path d="M482.904 214.627C483.481 216.285 484.164 218.234 483.227 219.341L409.339 219.34C408.214 219.34 407.351 219.254 406.921 218.941C406.092 218.336 405.902 217.341 405.63 216.094L402.686 202.633C401.462 197.032 400.366 191.644 398.271 186.056C397.922 185.126 398.326 184.157 399.147 184L412.952 184.227L469.224 184.098C471.519 184.093 472.44 184.657 473.174 186.755L477.16 198.135L482.904 214.627Z" fill="#2C8733"/>
<path d="M533.818 742.792L532.363 762.195L531.261 779.208L530.242 793.818C530.156 795.043 529.876 796.314 528.285 796.295L495.872 795.895C506.846 784.698 515.2 773.346 522.206 760.341L530.855 740.8L532.319 737.663C532.754 736.732 532.77 736.136 532.62 735.387C533.785 735.277 534.325 736.059 534.048 737.283L533.818 742.792Z" fill="#2C8733"/>
<path d="M415.737 283.219L413.066 283.366C412.636 282.785 412.786 281.843 413.374 281.607C414.024 281.346 415.158 281.444 415.6 281.993C415.807 282.249 415.743 282.842 415.737 283.219Z" fill="#F4F8F4"/>
<path d="M639.123 613.445L629.866 595.733L619.404 595.753L617.039 600.76L609.488 616.969L605.135 626.325L609.68 632.49C614.985 641.93 614.541 652.966 607.797 661.742C600.626 671.075 587.026 673.499 577.327 666.601C564.721 657.635 563.271 639.581 573.396 628.194C579.118 622.143 586.737 619.796 594.951 621.475L614.731 578.45C602.952 572.398 597.12 559.947 600.604 546.996C602.021 541.727 605.014 537.104 609.044 533.836C619.422 525.928 633.491 527.373 641.694 537.773C651.726 550.491 648.257 570.405 633.158 578.059L636.203 584.145L644.049 599.031L652.23 614.487L656.222 621.834C666.492 619.181 675.955 622.437 681.891 631.077C689.965 642.827 686.906 659.043 675.626 666.62C665.404 673.487 651.495 671.004 644.423 660.489C637.647 650.414 638.514 637.329 646.617 627.967L639.123 613.445Z" fill="#FEFEFE"/>
</g>
<defs>
<clipPath id="clip0_1_63">
<rect width="872" height="832" fill="white" transform="translate(164 184)"/>
</clipPath>
</defs>
</svg>
