<svg width="960" height="173" viewBox="0 0 960 173" fill="none" xmlns="http://www.w3.org/2000/svg">
<path d="M214.014 170.53L206.746 171.588C201.219 172.393 195.82 171.989 190.498 171.444C167.826 169.123 148.833 154.282 141.517 132.185C138.07 121.777 137.904 111.013 139.736 99.98L143.628 87.9202L147.862 79.8959C156.873 66.1443 171.176 57.3086 187.168 54.4141L199.802 53.458L211.438 54.4106L215.709 55.2061C227.999 57.4952 239.098 64.0439 246.749 73.9446L251.591 80.2108C258.056 88.5768 260.328 99.1345 260.674 110.017C261.207 126.802 255.769 143.062 243.795 154.89C235.449 163.134 225.61 168.841 214.014 170.53ZM230.291 113.081C230.291 96.1371 216.555 82.4012 199.611 82.4012C182.667 82.4012 168.931 96.1372 168.931 113.081C168.931 130.025 182.667 143.761 199.611 143.761C216.555 143.761 230.291 130.025 230.291 113.081Z" fill="#084E2D"/>
<path d="M294.263 38.7554C304.965 38.7554 313.64 30.0797 313.64 19.3777C313.64 8.67568 304.965 0 294.263 0C283.561 0 274.885 8.67568 274.885 19.3777C274.885 30.0797 283.561 38.7554 294.263 38.7554Z" fill="#084E2D"/>
<path d="M512.824 24.9218C526.577 41.6119 526.831 69.6596 516.053 87.1957C506.446 102.828 493.03 110.154 475.118 112.288C472.793 113.069 470.337 112.936 467.799 112.941L433.569 113.01L433.404 168.991L399.85 168.922L399.846 4.91052L466.739 5.04004C469.377 5.04515 471.757 4.89449 474.099 5.64557L481.865 6.90228C494.037 8.87203 504.966 15.3852 512.824 24.9218ZM483.657 41.6777L479.959 38.821L473.715 36.0826L467.821 35.085L433.565 34.9669L433.608 84.0511L466.799 84.061C468.374 84.0614 469.872 84.0162 471.177 83.3654C475.426 82.6742 479.424 80.973 482.817 77.9581C493.58 68.3965 491.434 47.6848 483.657 41.6777Z" fill="#2C8733"/>
<path d="M74.7199 171.639L50.8012 171.664L42.8548 170.641L38.8074 169.766L33.5007 168.332C24.459 165.889 16.0825 162.107 8.78586 156.051L0 148.759L6.78636 140.001L14.8048 129.99L17.9445 125.939C18.183 125.099 19.8407 124.993 20.0315 125.872C28.1833 133.753 37.6588 140.255 48.7596 143.005L51.7669 143.75L57.1714 144.563C61.1918 145.168 65.5253 145.449 69.7557 144.728L74.8083 143.867C82.9121 142.485 90.746 137.071 92.8227 129.039C96.4649 114.954 83.322 107.856 69.5864 104.251L43.4406 97.3892L39.7859 96.1011C25.2159 90.966 10.5898 81.2163 7.59405 66.0281L6.60588 61.0182C3.32589 44.3892 10.2108 26.3849 23.6013 15.7733C32.2342 8.93188 42.2159 4.39154 53.0934 3.41193L64.8022 2.35742L78.7309 3.31567L83.7655 4.2345L88.6564 5.31903L99.0444 8.70001C107.531 11.4622 115.176 16.5961 121.785 23.0754C123.205 24.4668 120.791 26.405 120.097 27.2588L109.811 39.9193L105.23 45.4269C102.828 48.3145 99.0581 41.8161 90.762 38.0901C84.7435 35.3871 79.0144 33.1778 72.5298 32.3102C60.5885 30.7125 46.9648 32.27 40.8811 41.9559C36.3734 49.1328 38.5179 57.8486 44.9856 62.8013C49.6248 66.3539 54.8635 68.0858 60.4075 69.4556L77.1255 73.5859L81.8205 74.8977L86.4727 76.3112L89.5434 77.3207C102.175 81.4732 113.657 87.3128 120.636 99.2299C128.883 113.312 127.768 135.68 118.172 149.384C111.468 158.956 101.661 165.626 90.4108 168.533L85.7695 169.732L81.7282 170.622L74.7199 171.639Z" fill="#084E2D"/>
<path d="M685.835 169.901L677.144 171.43C671.013 172.509 664.611 172.6 658.5 171.409L652.74 170.287L644.845 167.909C631.018 163.745 617.506 150.001 611.996 135.725C606.026 120.257 605.973 103.385 612.637 87.8912C618.478 74.3111 629.274 64.4749 642.43 58.5355C648.895 55.6169 655.44 53.341 662.47 53.4918L676.861 53.8006C704.028 56.8667 725.743 76.5959 729.221 103.675C731.112 118.401 727.862 136.803 718.808 147.989L714.742 153.013C707.487 161.977 696.979 167.019 685.835 169.901ZM699.383 113.066C699.383 96.1701 685.687 82.4736 668.791 82.4736C651.896 82.4736 638.199 96.1701 638.199 113.066C638.199 129.961 651.896 143.658 668.791 143.658C685.687 143.658 699.383 129.961 699.383 113.066Z" fill="#2C8733"/>
<path d="M953.066 153.583C951.399 156.603 949.449 157.966 947.201 159.452L940.621 163.8C936.428 166.571 931.919 168.413 927.051 169.313L916.062 171.345C909.967 172.472 903.611 172.513 897.519 171.379L886.547 169.336C876.659 167.495 868.502 161.609 861.455 154.309C854.797 147.412 850.647 138.962 848.186 129.654L847.121 125.626L846.252 118.64C845.683 114.072 845.804 109.634 846.52 104.988L847.755 96.9745L849.552 90.7608C852.713 79.8262 859.735 70.8889 869.076 64.2608C878.694 57.4371 889.737 54.1695 901.478 53.5981L916.088 54.5892C926.067 55.2661 940.637 64.3507 947.765 73.9739C952.289 80.0816 955.513 86.4198 957.089 93.7565L958.291 99.356C959.847 106.603 959.147 113.909 958.385 121.779L876.854 121.98C879.329 135.478 887.459 143.63 900.487 146.438C912.623 149.054 925.519 145.509 934.736 136.904C935.612 136.087 937.301 135.795 938.063 136.674L945.975 145.802L953.066 153.583ZM928.809 101.205C928.126 86.8248 918.236 78.9834 903.807 78.8247C890.466 78.678 879.074 87.9286 877.382 100.956L881.491 101.435L912.786 101.65L928.809 101.205Z" fill="#2C8733"/>
<path d="M848.1 56.3336L842.967 69.0655L838.062 81.2835L813.095 143.18L802.961 168.701L772.956 168.919C770.801 165.834 769.778 162.621 768.526 159.224L766.124 152.709L757.201 130.635L755.837 126.997L752.464 118.242L739.714 86.0412L727.84 56.3992L758.567 56.2183C760.051 56.9539 760.887 59.1519 761.14 60.6763L776.023 101.767L787.045 131.777C787.311 132.502 787.66 133 787.686 133.541C787.714 134.106 789.153 134.313 789.388 133.717L791.66 127.94L799.028 108.021L817.444 58.7333C817.888 57.5459 818.383 56.2831 819.87 56.2856L848.1 56.3336Z" fill="#2C8733"/>
<path d="M369.62 4.90393H337.053V168.983H369.62V4.90393Z" fill="#084E2D"/>
<path d="M566.376 165.967C566.373 166.601 566.446 168.839 565.643 168.843L536.005 168.997L535.994 56.2773L565.67 56.1533L566.426 61.9874C566.914 65.7486 565.688 69.2034 567.025 73.3927C574.194 60.242 588.247 53.1616 603.303 55.5024L603.38 84.9135L587.072 85.3122C577.696 85.5414 566.709 96.4641 566.663 105.989L566.376 165.967Z" fill="#2C8733"/>
<path d="M277.901 55.6668L277.878 168.982L310.517 168.989L310.539 55.6734L277.901 55.6668Z" fill="#084E2D"/>
</svg>
