<svg width="820" height="727" viewBox="0 0 820 727" fill="none" xmlns="http://www.w3.org/2000/svg">
<path d="M479.967 369.232L478.939 364.186L475.816 352.172L475.054 350.17L472.964 341.17L471.798 336.988L466.96 318.012L462.253 300.572L450.061 256.991L446.624 245.213C446.202 243.766 447.292 243.091 448.505 243.033L466.927 238.267L474.003 236.648L497.674 232.255C501.041 231.63 504.23 230.988 507.29 231.328L523.646 255.261L528.838 263.103L533.53 270.287L542.915 285.032L545.693 289.267L563.07 317.906L577.661 342.243L583.532 352.542C584.35 353.58 584.3 355.098 582.928 355.621L565.676 357.565L557.838 358.617L539.989 361.665C522.236 364.696 505.127 368.854 487.725 374.279C485.818 374.874 483.648 375.721 481.871 375.061L479.967 369.232Z" fill="#2C8733"/>
<path d="M603.414 354C601.156 354.093 598.326 354.801 596.032 354.008L592.616 348.259L576.577 321.288L559.856 294.077L545.536 271.322L533.541 253.305L518.983 232.005C517.851 231.099 518.025 229.31 519.501 228.935L534.994 227.672L546.806 226.703L561.354 225.887L580.699 224.941L605.288 224.406C606.946 224.37 610.245 228.349 611.112 231.943C612.332 236.999 611.823 241.994 610.835 247.269L609.708 253.28C607.857 263.161 607.907 272.134 613.878 280.011C617.251 284.46 622.743 286.303 627.746 283.299C634.866 279.024 638.096 265.357 651.699 268.302C662.96 270.739 676.91 278.88 675.474 288.635C674.24 297.022 665.338 296.831 664.072 305.608C662.769 314.639 674.124 316.338 671.504 323.393C671.039 324.643 669.718 326.162 668.885 327.424L662.121 337.668L658.679 343.236L655.028 349.699C654.443 350.735 654.068 353.543 652.415 353.822L614.702 353.532L603.414 354Z" fill="#2C8733"/>
<path d="M671.456 618.336L676.89 632.052L680.934 643.017L687.939 662.044L698.555 692.254L706.438 715.33C707.574 718.657 708.918 721.577 709.055 725.901L651.73 725.913C649.158 725.913 648.18 722.469 648.583 720.325C649.305 716.485 651.36 714.065 653.643 711.251L658.174 705.667C663.284 699.369 668.229 693.673 667.32 685.586C666.497 678.268 661.124 673.187 653.669 673.157L636.672 673.089C635.146 673.083 633.803 672.935 632.296 672.587L627.624 656.22L612.795 608.315L608.816 596.955L603.891 582.035L595.224 556.602L582.477 521.359L578.852 511.157C578.284 509.561 581.273 509.159 582.253 508.889L602.641 503.263L620.51 499.735L622.583 504.332L630.52 521.334L634.608 530.305L642.01 546.993L656.634 581.259L658.065 584.896L665.901 604.009L669.625 613.376" fill="#2C8733"/>
<path d="M674.403 497.444C674.46 497.631 674.615 497.851 674.421 498.451L693.815 532.074L698.851 541.087L703.429 549.533L718.468 577.466L728.425 596.515L741.661 622.289L760.605 660.278C761.722 662.517 761.019 665.448 759.208 666.789C757.474 668.072 754.91 668.142 752.707 667.058C748.888 665.178 743.479 665.954 741.869 670.305C740.85 673.058 741.697 676.441 741.419 679.189C740.486 688.436 750.61 685.605 751.464 690.332C751.899 692.743 751.741 695.273 750.947 697.471C748.756 703.542 739.725 698.618 736.52 706.152C735.616 708.278 735.249 710.221 736.429 712.474C738.79 716.984 737.965 723.936 732.575 725.871C729.845 726.85 725.7 726.207 722.922 725.798C720.7 723.93 720.377 720.278 719.43 717.53L711.427 694.312L699.32 661.57L691.4 640.518L689.144 635.025L681.006 614.973L676.453 603.348L671.773 592.211L668.795 585.196L664.787 576.208L659.468 563.326L646.79 535.203L640.492 521.35L634.782 509.211L630.519 500.206C630.173 499.474 629.868 497.633 630.825 497.464C644.464 495.047 657.721 493.628 671.458 493.218C672.163 495.26 673.078 496.732 674.403 497.444Z" fill="#1B7F35"/>
<path d="M597.578 597.175L608.997 634.983L618.803 670.22C619.002 670.937 618.942 672.289 618.651 672.631C618.386 672.941 617.618 672.948 616.621 672.95L547.727 673.057C545.648 673.061 544.184 672.276 543.839 670.213L541.502 656.254L535.505 623.257L528.516 587.268L523.008 559.983L519.091 540.949L518.277 536.544L521.604 534.203L528.922 530.49L545.761 522.417L566.682 514.154C567.773 513.723 568.251 513.613 569.119 514.147C569.711 514.512 569.662 515.3 569.94 516.078L575.458 531.475L579.992 544.02L594.205 586.573L597.578 597.175Z" fill="#1B7F35"/>
<path d="M685.738 493.083L704.991 493.81L719.738 495.466C735.605 497.247 760.31 504.285 775.441 510.56C775.285 516.553 769.127 520.752 767.899 526.629C766.439 533.615 775.625 539.688 778.963 552.038C779.85 555.322 781.449 558.584 784.687 560.208C791.281 563.514 794.996 556.432 800.041 557.454C804.415 558.34 806.637 564.641 812.525 569.481C815.029 571.539 817.832 573.835 818.454 577.336C819.891 585.416 819.198 591.449 812.646 593.122C808.036 594.299 805.784 598.745 807.716 603.359L812.254 608.661C813.5 610.118 812.969 613.07 812.222 614.905C811.066 617.743 806.016 615.815 804.088 619.15C801.905 622.929 808.489 626.951 804.187 632.044C802.124 634.485 797.437 635.204 794.589 633.446C791.751 631.694 790.889 624.583 786.383 622.622C783.883 621.533 781.241 622.824 779.556 624.612C775.323 629.102 781.311 635.331 779.368 639.98C777.833 643.652 773.233 645.495 769.998 642.878C766.697 640.208 767.85 633.735 764.742 633.132C762.529 632.702 760.79 633.061 758.443 633.573L749.208 615.66L735.877 590.076L730.89 581.046L722.876 566.062L715.864 553.071L706.907 537.041L701.471 527.463L697.868 521.036L683.878 497.066L682.665 495.353C682.543 494.898 682.299 494.108 682.557 493.212L685.738 493.083Z" fill="#1B7F35"/>
<path d="M682.312 481.586L675.696 481.495C674.468 481.478 674.118 479.991 673.678 479.257L660.531 457.296L638.482 421.501L626.478 402.464L623.743 398.228L607.824 373.115C606.68 371.311 605.027 369.714 605.623 367.34L608.824 366.72C609.378 367.232 610.292 367.335 610.538 366.48L649.015 366.819C652.721 366.852 649.681 373.602 657.235 381.688C659.421 384.028 662.057 386.424 665.069 387.714C673.248 391.219 671.046 398.704 676.028 401.818C684.006 406.803 694.486 400.082 698.808 411.239L701.037 416.99C701.982 419.429 702.527 422.481 704.523 424.407C708.889 428.619 715.606 425.775 719.634 427.441C728.223 430.994 723.45 442.561 730.585 447.379C740.07 453.784 748.062 446.055 752.961 457.912C754.892 462.587 758.127 466 761.119 469.618C766.433 476.046 757.053 482.883 760.808 489.203L763.782 494.208C747.722 491.007 730.598 484.968 714.406 483.637L692.027 481.797L682.312 481.586Z" fill="#084E2D"/>
<path d="M552.574 214.159L542.575 214.946L531.588 215.82L520.691 217.015L513.744 217.576C508.545 217.996 509.857 218.394 506.128 213.87L503.849 211.105L501.666 207.296L492.524 195.234C492.603 194.344 491.924 194.162 491.504 194.49C490.534 191.808 489.023 189.219 487.431 189.274C487.63 187.79 486.43 186.9 485.472 185.443L483.16 181.929C482.629 181.122 481.945 181.492 481.542 181.484C481.853 179.824 480.615 178.861 479.539 177.43L475.654 172.264C474.917 171.284 474.4 170.392 473.548 170.387C473.363 168.568 471.812 167.107 470.517 165.451L466.542 160.369L463.152 155.861L447.486 136.111C447.04 135.549 448.821 134.44 449.705 134.409L468.344 133.761L520.557 133.091L521.238 139.707C521.679 143.988 523.85 149.398 528.721 149.792C533.284 150.162 536.541 152.32 536.971 157.249C537.487 163.162 542.15 167.854 547.955 168.824C555.39 170.066 562.103 175.961 562.467 184.26C562.731 190.267 566.94 194.252 572.322 195.683C579.686 197.64 575.51 205.993 580.284 210.616C580.81 211.125 580.666 212.193 580.322 212.482C580.012 212.742 579.367 212.803 578.575 212.852L558.672 214.061L552.574 214.159Z" fill="#2C8733"/>
<path d="M514.681 522.229C514.909 520.862 514.589 519.472 514.242 517.842L508.585 491.308L499.996 451.94L486.499 394.365C486.006 392.262 485.185 390.543 485.863 388.394C487.2 388.511 488.474 387.753 489.697 387.413L515.69 380.19C517.136 379.789 517.716 380.886 518.084 381.848L527.764 406.235L530.048 411.914L539.317 435.551L542.945 445.023L554.92 476.01L560.048 489.954L563.863 500.297C564.307 501.222 564.58 502.381 563.557 503.077C547.989 508.552 533.739 515.7 519.087 522.709L515.813 524.275C515.851 523.044 515.468 522.445 514.681 522.229Z" fill="#084E2D"/>
<path d="M510.473 120.304L474.025 120.735L433.592 122.932L420.671 124.144L411.678 125.355C409.658 125.627 408.351 125.158 407.712 123.248L403.444 110.484L398.487 96.477L393.414 82.7934L403.691 82.212L432.709 81.4307L489.445 81.4298C490.592 81.7743 490.747 84.1413 491.009 85.0003C492.668 90.4419 494.829 96.1629 497.761 101.094L502.643 109.302L505.482 113.417C507.052 115.693 509.296 116.882 510.473 120.304Z" fill="#084E2D"/>
<path d="M458.895 68.8719L398.016 69.6331L390.633 69.9784C388.413 70.0822 387.939 67.3109 387.265 65.6726L384.636 59.2844L376.685 39.2951L372.561 29.3132L368.567 20.3138L364.858 12.1757L359.465 0.219645L391.677 0.0703353C394.414 0.0576453 396.363 0.878425 398.378 2.62191L405.309 8.61892L411.821 14.139L433.609 36.2408L438.826 42.1166L443.797 48.1437L449.169 54.6688L452.824 59.1782L455.903 63.0209L458.895 68.8719Z" fill="#2C8733"/>
<path d="M496.807 216.234L498.341 219.664L484.669 222.056L463.786 226.26L443.615 231.208C442.278 231.536 441.644 229.262 441.446 228.508L440.172 223.639L436.632 212.237L428.992 188.168L424.563 174.239L413.552 140.182C413.094 138.766 414.196 137.92 415.494 137.876L435.803 135.707L440.21 140.65L444.686 146.247L448.674 151.255L461.643 168.276L465.167 172.688L480.908 194.019L488.394 204.532L494.967 213.978L496.807 216.234Z" fill="#2C8733"/>
<path d="M495.617 36.2199C501.506 42.8889 488.974 56.8596 489.192 68.76L472.395 68.7472C471.318 68.7464 470.692 67.162 470.255 66.5833L464.692 59.2084L448.835 40.1236L435.32 25.6051L417.818 9.12149L410.26 2.57604C409.746 2.131 407.992 1.80065 408.509 0.162354L464.291 0.319754C468.276 2.8519 473.127 9.33783 473.172 9.69255L473.855 15.0107C474.235 17.9699 476.204 19.785 479.037 20.966L484.739 23.343C486.594 24.1163 487.224 26.7162 488.641 28.3214L495.617 36.2199Z" fill="#2C8733"/>
<path d="M614.912 488.189L602.838 491.395L590.029 494.691L574.215 499.041L545.968 427.098L539.936 411.996L528.918 384.054C528.142 382.087 527.202 380.569 526.899 377.781L547.764 373.498L553.829 372.7L566.892 395.051L576.887 413.033L582.871 424.069L593.548 444.387L596.541 450.396L598.014 452.928L605.526 468.327L608.495 474.436L611.485 480.3L614.912 488.189Z" fill="#2C8733"/>
<path d="M663.717 482.105L626.685 486.516C625.449 486.663 623.96 486.806 623.345 485.529L613.941 466.022L605.499 449.462L597.602 434.278L588.462 417.475L581.824 405.106L572.479 388.468L563.514 372.197C563.118 371.478 564.955 370.994 565.539 370.917L577.693 369.315L591.802 367.939C593.811 367.743 594.6 369.897 595.553 371.391L617.769 406.2L629.784 425.251L650.709 459.213L659.664 474.252L663.717 482.105Z" fill="#2C8733"/>
<path d="M455.531 356.302L457.453 363.309L458.24 367.346L462.531 384.362L462.991 386.977L465.044 394.966L469.048 411.934L473.043 428.948L476.17 442.626L477.417 447.234L480.269 460.58L483.763 477.255L485.569 485.262L487.748 495.262L489.102 501.941L496.816 540.23L499.033 550.96L499.974 557.469L491.585 557.779L388.73 557.703L324.704 557.765C322.821 557.767 321.175 557.729 319.959 557.057L321.247 543.934L322.059 534.544L323.051 520.569L324.141 500.532C325.842 469.249 325.745 438.284 324.143 406.988L323.115 386.904L322.085 371.968L321.203 360.619L319.109 336.934L318.14 326.924L316.791 314.258L315.097 297.943L311.098 266.953L307.06 237.979L304.43 220.257L300.564 196.269L298.292 183.328C297.879 180.975 296.881 178.822 297.638 176.103L404.451 176.134L408.463 189.532L421.967 234.132L425.647 246.263L430.736 264.251L433.715 274.296L445.675 318.228L449.063 330.952L451.088 338.942L455.531 356.302ZM415.11 472.285L423.354 488.248C414.44 498.539 413.487 512.922 420.941 523.996C428.72 535.555 444.02 538.284 455.265 530.736C467.673 522.407 471.038 504.582 462.156 491.666C455.626 482.17 445.217 478.59 433.92 481.506L429.528 473.43L420.529 456.44L411.898 440.078L408.549 433.388C425.158 424.974 428.974 403.085 417.938 389.105C408.915 377.673 393.439 376.085 382.023 384.778C377.59 388.37 374.298 393.451 372.738 399.243C368.906 413.479 375.322 427.165 388.278 433.818L366.52 481.111C357.485 479.267 349.104 481.846 342.809 488.497C331.672 501.014 333.266 520.859 347.134 530.715C357.802 538.297 372.762 535.633 380.651 525.374C388.07 515.727 388.558 503.596 382.723 493.219L377.723 486.443L382.511 476.158L390.817 458.342L393.419 452.838L404.927 452.815L415.11 472.285Z" fill="#F4AD04"/>
<path d="M295.801 321.307C295.666 321.754 296.868 322.431 296.931 322.998L297.935 332.151L299.122 345.928L300.106 358.92L301.098 371.925L302.071 387.925L303.138 409.966C304.563 439.386 305.1 468.467 303.2 497.843L302.116 514.61L301.352 526.28L300.567 536.166L300.041 537.574L295.499 567.356L293.243 576.958C290.457 588.815 287.006 600.174 281.479 611.165L273.116 627.796L264.379 640.97L261.803 644.334L258.211 648.875L241.706 665.205L233.735 671.319C231.892 672.733 230.005 673.05 227.569 673.048L122.496 672.986L122.424 638.918C138.878 635.951 160.248 631.351 173.877 622.512L189.679 612.262L194.735 608.282L212.676 590.321L216.233 585.887L218.838 582.447L226.867 570.438L230.886 563.435C239.117 549.093 244.499 533.928 249.261 517.93C255.287 497.687 259.031 477.396 261.883 456.332L262.972 448.288L263.926 440.261L266.621 408.237L267.975 351.296L267.623 322.131L289.05 321.765L295.801 321.307Z" fill="#084E2D"/>
<path d="M251.337 442.134L246.507 472.25L243.08 489.579L239.657 503.26L236.636 513.252L231.969 527.497L229.355 533.977L219.745 554.333C205.538 580.181 185.118 600.749 158.383 612.97C149.892 616.852 141.131 620.269 131.778 621.516L122.398 622.767L122.297 561.387L124.761 560.343C137.911 556.316 150.355 550.243 159.959 540.608L173.493 527.031C199.654 495.324 209.174 460.039 216.89 420.425L218.052 414.457C222.448 386.301 224.265 358.197 223.986 329.669L224.378 325.077C224.434 324.426 223.932 323.479 224.489 322.776C224.964 322.177 225.519 322.047 226.629 322.027L238.651 321.808L254.594 321.567C255.527 321.553 256.003 321.848 256.245 322.168C256.681 322.745 256.682 323.297 256.673 324.297L256.174 381.87L254.999 404.258L253.714 419.256L251.507 439.264L251.337 442.134Z" fill="#2C8733"/>
<path d="M287.533 242.284C285.222 242.974 282.574 242.562 279.69 242.6L263.531 242.81L201.656 242.69L123.724 242.695L121.746 242.416L121.522 232.283C121.445 228.808 117.893 227.1 114.992 225.936C106.84 222.665 110.234 216.4 106.464 211.429C105.552 210.227 104.793 208.852 104.381 207.442L111.724 203.286C121.584 197.705 129.465 190.016 136.88 181.43C138.311 179.772 139.467 177.079 141.551 176.204L163.794 176.232L275.589 176.135C277.336 176.133 277.535 178.139 277.711 179.185L281.043 198.969L284.305 220.529L287.533 242.284Z" fill="#2C8733"/>
<path d="M84.1944 148.746C85.8664 146.805 90.0214 145.786 94.0373 141.576C98.5322 136.864 100.936 130.321 99.082 124.003C97.4509 118.444 94.632 113.386 89.7635 110.175C84.4514 106.673 78.5884 107.655 73.6354 111.05C68.5554 114.532 61.8407 113.529 58.4748 108.392C56.5294 105.423 55.349 101.621 51.5912 100.304L48.7181 99.2963C35.3287 94.6026 45.7053 80.4883 39.9033 71.126C35.1071 63.3865 25.1129 67.1394 22.8234 62.142C21.2679 58.7466 21.7172 54.9133 23.074 51.4036L144.653 51.2759C148.005 70.7574 150.008 90.9855 148.055 110.545C146.229 130.829 139.248 149.537 127.194 165.81L122.606 171.301C115.339 179.999 106.249 186.704 96.3082 191.826C94.5779 192.717 93.1901 190.696 92.3084 189.734L86.0357 182.895L78.2142 173.892C73.4968 168.461 73.9793 160.61 78.6141 155.227L84.1944 148.746Z" fill="#084E2D"/>
<path d="M122.417 545.079L122.169 489.658L122.413 473.313C125.726 471.225 129.568 469.765 132.218 466.82L134.788 465.303C153.275 449.175 162.407 431.714 169.011 408.518C174.698 388.539 177.627 368.416 178.185 347.636L178.786 325.215C178.81 324.323 178.48 322.947 179.367 321.602L213.252 321.643L212.664 352.255L212.027 363.359C209.425 408.639 199.978 459.443 177.468 498.017L169.838 509.446L167.316 512.86L161.189 519.845L153.685 527.342C146.771 534.249 125.911 546.256 122.417 545.079Z" fill="#2C8733"/>
<path d="M289.579 255.298L290.191 261.344L292.835 284.256L294.033 294.118L294.852 306.219L123.831 306.262C122.655 306.15 122.177 305.572 121.776 305.373L121.772 254.125C122.595 253.653 123.255 253.479 124.651 253.475L165.664 253.367L200.684 253.382L241.685 253.364L288.412 253.324C289.167 253.772 289.534 254.848 289.579 255.298Z" fill="#1B7F35"/>
<path d="M503.502 572.265C503.04 572.944 503.393 574.114 503.613 575.317L514.75 636.185L516 643.988L519.97 668.232C520.199 669.631 520.961 671.334 520.003 672.915L455.006 673.008C454.642 673.008 454.037 672.398 453.735 672.012L450.105 640.92L447.086 614.901L442.644 576.438C442.469 574.92 442.257 573.239 442.671 571.346L502.393 571.305C502.783 572.032 503.219 572.211 503.502 572.265Z" fill="#1B7F35"/>
<path d="M262.693 108.568C263.325 109.636 264.06 110.418 264.296 111.559L273.051 153.927L274.555 162.366C274.677 163.054 274.629 165.087 273.455 165.09L241.599 165.175L148.844 164.999C152.609 157.384 155.803 151.548 157.962 144.519L160.504 136.247C163.21 127.67 164.568 119.272 164.69 110.277C164.7 109.543 165.335 109.254 165.856 109.225L168.793 109.063L241.281 108.784L262.693 108.568Z" fill="#2C8733"/>
<path d="M300.57 108.692C323.861 109.37 358.576 108.568 381.893 108.7C383.969 110.457 384.627 114.937 385.665 117.278C389.128 127.956 397.42 153.625 400.652 164.065C398.073 167.691 297.913 163.894 294.814 165.217C292.565 151.816 288.724 133.439 285.473 120.265C285.501 117.965 280.927 108.036 285.656 109.186C286.462 109.502 286.995 108.955 287.139 108.627" fill="#F4AD04"/>
<path d="M430.748 576.144L432.089 588.988L434.698 612.266L438.065 643.94L441.049 672.908L383.001 672.99C382.45 672.991 381.601 671.844 381.586 671.333L381.289 661.574L380.486 638.26L379.832 624.26L379.077 608.252L377.792 576.941C377.722 575.221 377.629 573.644 378.195 571.404L429.549 571.358C431.071 572.495 430.624 574.95 430.748 576.144Z" fill="#1B7F35"/>
<path d="M366.332 579.483L367.108 602.945L368.067 629.941L368.97 660.255L369.157 672.891L314.695 673.005C310.143 673.015 311.732 669.593 312.255 661.918L315.134 619.67L315.484 613.941L318.418 571.282L365.603 571.314L366.332 579.483Z" fill="#1B7F35"/>
<path d="M135.979 38.4124L43.7656 38.4768L20.6809 38.7335C18.4965 38.7577 17.5864 37.8576 16.9218 36.0638C14.6561 29.9487 11.228 24.8656 6.45247 20.4717L1.66647 14.3037C-0.704961 11.2475 -0.278315 7.02954 1.28373 4.41654C3.3837 0.903693 6.56692 0.227883 10.7954 0.229373L134.394 0.272943L138.315 16.3685L142.776 38.0801C140.585 38.969 138.789 38.4104 135.979 38.4124Z" fill="#084E2D"/>
<path d="M167.916 325.214L167.161 350.651C166.643 368.12 164.607 385.286 159.219 401.878L156.065 411.592C153.464 419.603 150.095 426.928 145.63 434.251L143.374 437.951L139.591 443.3L125.834 457.257L123.589 458.484C122.995 458.447 122.633 457.722 122.597 457.362C122.357 457.106 122.159 456.725 122.159 456.159L122.152 437.153L122.165 408.843L122.11 324.326L121.85 322.335L123.867 321.704L138.683 321.963L158.72 321.878C161.866 321.865 164.834 321.238 167.709 321.922L167.916 325.214Z" fill="#084E2D"/>
<path d="M281.795 98.0948L279.216 97.0134C279.444 95.9467 279.124 94.7129 278.711 93.2619L273.365 74.4927L270.751 65.2527L266.482 51.1322L361.713 51.1831C363.36 51.6034 363.645 54.7689 364.109 55.9477L368.039 65.9389L375.785 88.2355C376.8 91.1588 378.593 93.9668 378.392 97.036C378.332 97.9503 376.455 98.0018 375.748 97.9954L356.624 97.8205L293.73 97.827L281.795 98.0948Z" fill="#F4AD04"/>
<path d="M259.922 97.9063L168.746 97.9171C168.043 97.9172 165.846 98.3561 165.754 96.9559L164.853 83.2556L163.139 64.9123L161.069 51.2628L246.632 51.1556C248.142 51.1537 248.669 53.1009 248.915 53.9871L255.655 78.2604L258.95 90.981C259.41 92.7581 260.01 93.9553 259.922 97.9063Z" fill="#2C8733"/>
<path d="M357.139 38.9681L262.914 38.8608C261.11 37.6275 260.95 34.557 260.23 32.6759L254.42 17.4757L248.689 3.22939C248.395 2.49826 248.075 0.826927 248.712 0.168007L337.599 0.116087C339.612 0.114907 341.02 -0.315593 342.253 1.11541C343.027 2.01357 343.354 3.48232 343.99 4.94411L348.843 16.0878L355.756 33.2503C356.52 35.1478 357.661 36.8058 357.139 38.9681Z" fill="#F4AD04"/>
<path d="M242.679 33.6655C243.314 35.4886 244.066 37.6311 243.034 38.8471L161.756 38.8467C160.518 38.8467 159.569 38.7523 159.095 38.4073C158.184 37.7423 157.975 36.649 157.675 35.2785L154.438 20.4812C153.091 14.3254 151.885 8.40285 149.581 2.26049C149.197 1.23807 149.642 0.17214 150.544 0L165.73 0.24948L227.63 0.1081C230.156 0.10233 231.168 0.72268 231.976 3.02875L236.36 15.5374L242.679 33.6655Z" fill="#2C8733"/>
<path d="M298.685 614.234L297.085 635.561L295.873 654.263L294.752 670.323C294.658 671.669 294.349 673.066 292.599 673.045L256.944 672.605C269.016 660.298 278.205 647.819 285.912 633.524L295.426 612.044L297.037 608.596C297.515 607.572 297.533 606.918 297.368 606.094C298.649 605.974 299.244 606.833 298.938 608.178L298.685 614.234Z" fill="#2C8733"/>
<path d="M168.793 109.063L165.856 109.225C165.382 108.587 165.547 107.551 166.194 107.291C166.91 107.004 168.157 107.112 168.643 107.715C168.87 107.997 168.8 108.649 168.793 109.063Z" fill="#F4F8F4"/>
<path d="M414.524 472.054L404.341 452.583L392.832 452.606L390.23 458.11L381.924 475.927L377.136 486.211L382.136 492.987C387.971 503.364 387.483 515.495 380.064 525.142C372.176 535.401 357.216 538.066 346.547 530.483C332.68 520.627 331.085 500.783 342.222 488.266C348.517 481.614 356.898 479.035 365.933 480.88L387.692 433.586C374.735 426.934 368.319 413.247 372.152 399.012C373.711 393.219 377.003 388.138 381.436 384.546C392.853 375.853 408.328 377.442 417.352 388.873C428.387 402.853 424.571 424.743 407.962 433.157L411.311 439.846L419.942 456.209L428.942 473.198L433.333 481.275C444.63 478.358 455.04 481.938 461.57 491.434C470.451 504.35 467.086 522.175 454.678 530.504C443.434 538.052 428.133 535.324 420.354 523.765C412.901 512.69 413.854 498.307 422.767 488.016L414.524 472.054Z" fill="#FEFEFE"/>
</svg>
