<svg width="1200" height="1200" viewBox="0 0 1200 1200" fill="none" xmlns="http://www.w3.org/2000/svg">
<rect width="1200" height="1200" fill="white"/>
<path d="M334.014 684.53L326.746 685.588C321.219 686.393 315.82 685.989 310.498 685.444C287.826 683.123 268.833 668.282 261.517 646.185C258.07 635.777 257.904 625.013 259.736 613.98L263.628 601.92L267.862 593.896C276.873 580.144 291.176 571.309 307.168 568.414L319.802 567.458L331.438 568.411L335.709 569.206C347.999 571.495 359.098 578.044 366.749 587.945L371.591 594.211C378.056 602.577 380.328 613.134 380.674 624.017C381.207 640.802 375.769 657.062 363.795 668.89C355.449 677.134 345.61 682.841 334.014 684.53ZM350.291 627.081C350.291 610.137 336.555 596.401 319.611 596.401C302.667 596.401 288.931 610.137 288.931 627.081C288.931 644.025 302.667 657.761 319.611 657.761C336.555 657.761 350.291 644.025 350.291 627.081Z" fill="#084E2D"/>
<path d="M414.263 552.755C424.965 552.755 433.64 544.08 433.64 533.378C433.64 522.676 424.965 514 414.263 514C403.561 514 394.885 522.676 394.885 533.378C394.885 544.08 403.561 552.755 414.263 552.755Z" fill="#084E2D"/>
<path d="M632.824 538.922C646.577 555.612 646.831 583.66 636.053 601.196C626.446 616.828 613.03 624.154 595.118 626.288C592.793 627.069 590.337 626.936 587.799 626.941L553.569 627.01L553.404 682.991L519.85 682.922L519.846 518.911L586.739 519.04C589.377 519.045 591.757 518.894 594.099 519.646L601.865 520.902C614.037 522.872 624.966 529.385 632.824 538.922ZM603.657 555.678L599.959 552.821L593.715 550.083L587.821 549.085L553.565 548.967L553.608 598.051L586.799 598.061C588.374 598.061 589.872 598.016 591.177 597.365C595.426 596.674 599.424 594.973 602.817 591.958C613.58 582.396 611.434 561.685 603.657 555.678Z" fill="#2C8733"/>
<path d="M194.72 685.639L170.801 685.664L162.855 684.641L158.807 683.766L153.501 682.332C144.459 679.889 136.083 676.107 128.786 670.051L120 662.759L126.786 654.001L134.805 643.99L137.944 639.939C138.183 639.099 139.841 638.993 140.031 639.872C148.183 647.753 157.659 654.255 168.76 657.005L171.767 657.75L177.171 658.563C181.192 659.168 185.525 659.449 189.756 658.728L194.808 657.867C202.912 656.485 210.746 651.071 212.823 643.039C216.465 628.954 203.322 621.856 189.586 618.251L163.441 611.389L159.786 610.101C145.216 604.966 130.59 595.216 127.594 580.028L126.606 575.018C123.326 558.389 130.211 540.385 143.601 529.773C152.234 522.932 162.216 518.392 173.093 517.412L184.802 516.357L198.731 517.316L203.765 518.234L208.656 519.319L219.044 522.7C227.531 525.462 235.176 530.596 241.785 537.075C243.205 538.467 240.791 540.405 240.097 541.259L229.811 553.919L225.23 559.427C222.828 562.314 219.058 555.816 210.762 552.09C204.743 549.387 199.014 547.178 192.53 546.31C180.589 544.712 166.965 546.27 160.881 555.956C156.373 563.133 158.518 571.849 164.986 576.801C169.625 580.354 174.863 582.086 180.408 583.456L197.125 587.586L201.82 588.898L206.473 590.311L209.543 591.321C222.175 595.473 233.657 601.313 240.636 613.23C248.883 627.312 247.768 649.68 238.172 663.384C231.468 672.956 221.661 679.626 210.411 682.533L205.77 683.732L201.728 684.622L194.72 685.639Z" fill="#084E2D"/>
<path d="M805.835 683.901L797.144 685.43C791.013 686.509 784.611 686.6 778.5 685.409L772.74 684.287L764.845 681.909C751.018 677.745 737.506 664.001 731.996 649.725C726.026 634.257 725.973 617.385 732.637 601.891C738.478 588.311 749.274 578.475 762.43 572.535C768.895 569.617 775.44 567.341 782.47 567.492L796.861 567.801C824.028 570.867 845.743 590.596 849.221 617.675C851.112 632.401 847.862 650.803 838.808 661.989L834.742 667.013C827.487 675.977 816.979 681.019 805.835 683.901ZM819.383 627.066C819.383 610.17 805.687 596.474 788.791 596.474C771.896 596.474 758.199 610.17 758.199 627.066C758.199 643.961 771.896 657.658 788.791 657.658C805.687 657.658 819.383 643.961 819.383 627.066Z" fill="#2C8733"/>
<path d="M1073.07 667.583C1071.4 670.603 1069.45 671.966 1067.2 673.452L1060.62 677.8C1056.43 680.571 1051.92 682.413 1047.05 683.313L1036.06 685.345C1029.97 686.472 1023.61 686.513 1017.52 685.379L1006.55 683.336C996.659 681.495 988.502 675.609 981.455 668.309C974.797 661.412 970.647 652.962 968.186 643.654L967.121 639.626L966.252 632.64C965.683 628.072 965.804 623.634 966.52 618.988L967.755 610.975L969.552 604.761C972.713 593.826 979.735 584.889 989.076 578.261C998.694 571.437 1009.74 568.17 1021.48 567.598L1036.09 568.589C1046.07 569.266 1060.64 578.351 1067.77 587.974C1072.29 594.082 1075.51 600.42 1077.09 607.756L1078.29 613.356C1079.85 620.603 1079.15 627.909 1078.39 635.779L996.854 635.98C999.329 649.478 1007.46 657.63 1020.49 660.438C1032.62 663.054 1045.52 659.509 1054.74 650.904C1055.61 650.087 1057.3 649.795 1058.06 650.674L1065.97 659.802L1073.07 667.583ZM1048.81 615.205C1048.13 600.825 1038.24 592.983 1023.81 592.825C1010.47 592.678 999.074 601.929 997.382 614.956L1001.49 615.435L1032.79 615.65L1048.81 615.205Z" fill="#2C8733"/>
<path d="M968.1 570.334L962.967 583.065L958.062 595.284L933.095 657.18L922.961 682.701L892.956 682.919C890.801 679.834 889.778 676.621 888.526 673.224L886.124 666.709L877.201 644.635L875.837 640.997L872.464 632.242L859.714 600.041L847.84 570.399L878.567 570.218C880.051 570.954 880.887 573.152 881.14 574.676L896.023 615.767L907.045 645.777C907.311 646.502 907.66 647 907.686 647.541C907.714 648.106 909.153 648.313 909.388 647.717L911.66 641.94L919.028 622.021L937.444 572.733C937.888 571.546 938.383 570.283 939.87 570.286L968.1 570.334Z" fill="#2C8733"/>
<path d="M489.62 518.904H457.053V682.983H489.62V518.904Z" fill="#084E2D"/>
<path d="M686.376 679.967C686.373 680.601 686.446 682.839 685.643 682.843L656.005 682.997L655.994 570.277L685.67 570.153L686.426 575.987C686.914 579.749 685.688 583.203 687.025 587.393C694.194 574.242 708.247 567.162 723.303 569.502L723.38 598.914L707.072 599.312C697.696 599.541 686.709 610.464 686.663 619.989L686.376 679.967Z" fill="#2C8733"/>
<path d="M397.901 569.667L397.879 682.982L430.517 682.989L430.54 569.673L397.901 569.667Z" fill="#084E2D"/>
</svg>
